<svg xmlns="http://www.w3.org/2000/svg" viewBox="0 0 612 792">
  <g style="isolation:isolate">
    <g id="Layer_1" data-name="Layer 1">
      <path fill="#5bba47" d="M435.7 220H135v333.48h300.7c15.28 0 27.66-13.16 27.66-29.4v-274.7c0-16.22-12.36-29.38-27.65-29.38zm-98 323.85a2.35 2.35 0 0 1-2.33 2.35H279.3a2.35 2.35 0 0 1-2.36-2.35v-4.32a2.35 2.35 0 0 1 2.35-2.34h56a2.34 2.34 0 0 1 2.3 2.3v4.3z"/>
      <text fill="#010101" transform="translate(199.19 298.93)" font-size="10" font-family="Roboto Slab">
        DOG PEOPLE
      </text>
      <text fill="#010101" transform="translate(322.69 298.93)" font-size="10" font-family="Roboto Slab">
        C<tspan x="6.45" y="0">A</tspan><tspan x="12.9" y="0">T PEOPLE</tspan>
      </text>
      <path fill="#231f20" d="M232.6 334.93a12.67 12.67 0 0 1-12.66 12.67v-25.33a12.66 12.66 0 0 1 12.67 12.66z"/>
      <path fill="#fff200" d="M219.94 322.27v25.33a12.67 12.67 0 0 1 0-25.33z"/>
      <text fill="#010101" transform="translate(241.27 334.03)" font-size="7" font-family="Roboto Slab">
        50% <tspan x="14.42" y="0">m</tspan><tspan x="21" y="0">o</tspan><tspan x="24.92" y="0">r</tspan><tspan x="27.75" y="0">e li</tspan><tspan x="37.76" y="0">k</tspan><tspan x="41.95" y="0">ely </tspan><tspan x="53.63" y="0">t</tspan><tspan x="56.12" y="0">o </tspan><tspan x="0" y="8.4">be conse</tspan><tspan x="29.09" y="8.4">r</tspan><tspan x="32.05" y="8.4">v</tspan><tspan x="35.91" y="8.4">ati</tspan><tspan x="44.63" y="8.4">v</tspan><tspan x="48.49" y="8.4">e</tspan>
      </text>
      <path fill="#231f20" d="M232.6 369.32A12.67 12.67 0 0 1 219.93 382v-12.68l-12.24-3.23a12.67 12.67 0 0 1 24.9 3.2z"/>
      <path fill="#fff200" d="M219.93 369.32V382a12.68 12.68 0 0 1-12.26-15.84v-.06z"/>
      <text fill="#010101" transform="translate(241.27 369.33)" font-size="7" font-family="Roboto Slab">
        28% <tspan x="14.46" y="0">m</tspan><tspan x="21.04" y="0">o</tspan><tspan x="24.97" y="0">r</tspan><tspan x="27.8" y="0">e li</tspan><tspan x="37.81" y="0">k</tspan><tspan x="41.99" y="0">ely </tspan><tspan x="53.67" y="0">t</tspan><tspan x="56.17" y="0">o </tspan><tspan x="0" y="8.4">be students</tspan>
      </text>
      <path fill="#231f20" d="M232.6 403.72a12.67 12.67 0 0 1-12.67 12.67v-12.7l-12.63.8v-.9a12.7 12.7 0 0 1 .4-3.2v-.1a12.67 12.67 0 0 1 24.9 3.2z"/>
      <path fill="#fff200" d="M219.93 403.72v12.67a12.66 12.66 0 0 1-12.63-11.9z"/>
      <text fill="#010101" transform="translate(241.27 403.72)" font-size="7" font-family="Roboto Slab">
        24% <tspan x="14.65" y="0">m</tspan><tspan x="21.23" y="0">o</tspan><tspan x="25.16" y="0">r</tspan><tspan x="27.99" y="0">e li</tspan><tspan x="38" y="0">k</tspan><tspan x="42.18" y="0">ely </tspan><tspan x="53.86" y="0">t</tspan><tspan x="56.36" y="0">o </tspan><tspan x="0" y="8.4">h</tspan><tspan x="4.52" y="8.4">a</tspan><tspan x="8.32" y="8.4">v</tspan><tspan x="12.19" y="8.4">e kids</tspan>
      </text>
      <path fill="#231f20" d="M232.6 438.1a12.67 12.67 0 0 1-12.67 12.68V438.1l-11.1-6.05a12.66 12.66 0 0 1 23.77 6.06z"/>
      <path fill="#fff200" d="M219.93 438.1v12.68a12.66 12.66 0 0 1-12.63-11.84v-.83a12.7 12.7 0 0 1 .4-3.1 12.5 12.5 0 0 1 1.13-2.8z"/>
      <text fill="#010101" transform="translate(241.27 438.12)" font-size="7" font-family="Roboto Slab">
        30% <tspan x="14.5" y="0">m</tspan><tspan x="21.08" y="0">o</tspan><tspan x="25.01" y="0">r</tspan><tspan x="27.84" y="0">e li</tspan><tspan x="37.85" y="0">k</tspan><tspan x="42.03" y="0">ely </tspan><tspan x="53.71" y="0">t</tspan><tspan x="56.21" y="0">o </tspan><tspan x="0" y="8.4">li</tspan><tspan x="4.5" y="8.4">v</tspan><tspan x="8.37" y="8.4">e in a rural a</tspan><tspan x="49.71" y="8.4">r</tspan><tspan x="52.54" y="8.4">ea</tspan>
      </text>
      <path fill="#231f20" d="M232.6 472.5a12.67 12.67 0 0 1-12.67 12.68V472.5l-11.55-5.15a9.36 9.36 0 0 1 .44-.9 12.66 12.66 0 0 1 23.78 6.06z"/>
      <path fill="#fff200" d="M219.93 472.5v12.68a12.66 12.66 0 0 1-12.63-11.84v-.83a12.7 12.7 0 0 1 .4-3.1 11.65 11.65 0 0 1 .7-1.9z"/>
      <text fill="#010101" transform="translate(241.27 472.51)" font-size="7" font-family="Roboto Slab">
        28% <tspan x="14.46" y="0">m</tspan><tspan x="21.04" y="0">o</tspan><tspan x="24.97" y="0">r</tspan><tspan x="27.8" y="0">e li</tspan><tspan x="37.81" y="0">k</tspan><tspan x="41.99" y="0">ely </tspan><tspan x="53.67" y="0">t</tspan><tspan x="56.17" y="0">o </tspan><tspan x="0" y="8.4">own t</tspan><tspan x="18.52" y="8.4">h</tspan><tspan x="23.01" y="8.4">eir own </tspan><tspan x="49.66" y="8.4">h</tspan><tspan x="54.15" y="8.4">o</tspan><tspan x="58.07" y="8.4">m</tspan><tspan x="64.65" y="8.4">e</tspan>
      </text>
      <text fill="#010101" transform="translate(244.27 506.21)" font-size="7" font-family="Roboto Slab">
        Mo<tspan x="10.44" y="0">r</tspan><tspan x="13.27" y="0">e li</tspan><tspan x="23.28" y="0">k</tspan><tspan x="27.46" y="0">ely </tspan><tspan x="39.14" y="0">t</tspan><tspan x="41.64" y="0">o </tspan><tspan x="0" y="8.4">li</tspan><tspan x="4.5" y="8.4">v</tspan><tspan x="8.37" y="8.4">e in No</tspan><tspan x="31.67" y="8.4">r</tspan><tspan x="34.68" y="8.4">th or </tspan><tspan x="0" y="16.8">South A</tspan><tspan x="26.39" y="16.8">m</tspan><tspan x="32.97" y="16.8">erica</tspan>
      </text>
      <path fill="#231f20" d="M357 334.93a12.67 12.67 0 0 1-12.67 12.67v-12.67l-11.06 6.16a12.66 12.66 0 1 1 23.73-6.2z"/>
      <path fill="#fff200" d="M344.32 334.93v12.67a12.65 12.65 0 0 1-11.06-6.5z"/>
      <text fill="#010101" transform="translate(365.66 329.03)" font-size="7" font-family="Roboto Slab">
        17% <tspan x="13.47" y="0">m</tspan><tspan x="20.05" y="0">o</tspan><tspan x="23.98" y="0">r</tspan><tspan x="26.81" y="0">e li</tspan><tspan x="36.81" y="0">k</tspan><tspan x="41" y="0">ely </tspan><tspan x="52.68" y="0">t</tspan><tspan x="55.18" y="0">o </tspan><tspan x="0" y="8.4">h</tspan><tspan x="4.52" y="8.4">a</tspan><tspan x="8.32" y="8.4">v</tspan><tspan x="12.19" y="8.4">e com</tspan><tspan x="32" y="8.4">p</tspan><tspan x="36.21" y="8.4">leted a </tspan><tspan x="0" y="16.8">graduate deg</tspan><tspan x="43.01" y="16.8">r</tspan><tspan x="45.84" y="16.8">ee</tspan>
      </text>
      <path fill="#231f20" d="M357 369.32A12.67 12.67 0 0 1 344.32 382v-12.68l-12.1-3.75a12.66 12.66 0 0 1 24.78 3.75z"/>
      <text fill="#010101" transform="translate(365.66 369.33)" font-size="7" font-family="Roboto Slab">
        29% <tspan x="14.54" y="0">m</tspan><tspan x="21.12" y="0">o</tspan><tspan x="25.05" y="0">r</tspan><tspan x="27.88" y="0">e li</tspan><tspan x="37.88" y="0">k</tspan><tspan x="42.07" y="0">ely </tspan><tspan x="53.75" y="0">t</tspan><tspan x="56.25" y="0">o </tspan><tspan x="0" y="8.4">li</tspan><tspan x="4.5" y="8.4">v</tspan><tspan x="8.37" y="8.4">e in t</tspan><tspan x="24.98" y="8.4">h</tspan><tspan x="29.46" y="8.4">e city</tspan>
      </text>
      <path fill="#fff200" d="M344.32 403.72v12.67a12.66 12.66 0 0 1-12.63-11.9v-.9a12.7 12.7 0 0 1 .4-3.2v-.1a12.58 12.58 0 0 1 2.3-4.7z"/>
      <path fill="#231f20" d="M357 403.72a12.67 12.67 0 0 1-12.67 12.67v-12.7l-9.92-7.9a12.66 12.66 0 0 1 22.6 7.8z"/>
      <text fill="#010101" transform="translate(365.66 403.72)" font-size="7" font-family="Roboto Slab">
        39% <tspan x="14.45" y="0">m</tspan><tspan x="21.03" y="0">o</tspan><tspan x="24.96" y="0">r</tspan><tspan x="27.79" y="0">e li</tspan><tspan x="37.8" y="0">k</tspan><tspan x="41.99" y="0">ely </tspan><tspan x="53.67" y="0">t</tspan><tspan x="56.16" y="0">o </tspan><tspan x="0" y="8.4">r</tspan><tspan x="2.83" y="8.4">ent t</tspan><tspan x="17.96" y="8.4">h</tspan><tspan x="22.45" y="8.4">eir </tspan><tspan x="33.15" y="8.4">h</tspan><tspan x="37.63" y="8.4">o</tspan><tspan x="41.56" y="8.4">m</tspan><tspan x="48.14" y="8.4">e</tspan>
      </text>
      <text fill="#010101" transform="translate(368.66 437.37)" font-size="7" font-family="Roboto Slab">
        Mo<tspan x="10.44" y="0">r</tspan><tspan x="13.27" y="0">e li</tspan><tspan x="23.28" y="0">k</tspan><tspan x="27.46" y="0">ely </tspan><tspan x="39.14" y="0">t</tspan><tspan x="41.64" y="0">o li</tspan><tspan x="51.81" y="0">v</tspan><tspan x="55.67" y="0">e in</tspan><tspan x="0" y="8.4">E</tspan><tspan x="4.41" y="8.4">u</tspan><tspan x="8.66" y="8.4">r</tspan><tspan x="11.48" y="8.4">ope or Oceania</tspan>
      </text>
      <g id="_0fWhTM.tif" data-name="0fWhTM.tif">
        <path d="M211.66 507.17a.2.2 0 0 1-.23-.18 1 1 0 0 0-.1-.3.26.26 0 0 0-.1 0l.06-.1-.4-.1h.2v-.1h-.3l.4-.3v-.1l-.4.1.2-.5-.3.2a.36.36 0 0 1 .2-.4.7.7 0 0 0 .2-.3.16.16 0 0 0-.1-.3.32.32 0 0 1-.1-.2v-.6s0-.2-.2-.1a3.56 3.56 0 0 1-.5.2v-.3h-1.1l.1-.1v-.1l-.3.1.1-.2-.7.1.2-.2v-.1c-.2 0-.4 0-.5.1a6.85 6.85 0 0 0-.7.2l-.6.3a.55.55 0 0 1-.6.3l-.4.2a1.48 1.48 0 0 1-.5.1l1-.6v-.1c-.1.1-.2.1-.4 0a1.15 1.15 0 0 1-.7.1l.4-.5a.4.4 0 0 0-.3.1 2.88 2.88 0 0 1-.4.1v-.2c.1-.1.3.1.4-.2h-.3l.3-.1h-.2l.9-.4a1.18 1.18 0 0 0 1.2-.5c-.2 0-.4.1-.6.1h-.5v-.1h.2l-.2-.1.8-.2-.1.1h.8a.4.4 0 0 0 .2-.1l-.2-.1.1-.1h-.2l-.2-.3a.8.8 0 0 1 .3-.1 1.3 1.3 0 0 0 .8-.3.7.7 0 0 1 .2-.1l1-.2a2 2 0 0 0 .3-.2v.1l.4-.5-.1.1h.1l1 .1h.4a1.1 1.1 0 0 1 .2 0 .62.62 0 0 0 .1 0 .47.47 0 0 1 .4.1.8.8 0 0 0 .6 0l.1-.1-.2.1v.1l.3-.1a1.1 1.1 0 0 1 .2 0 .2.2 0 0 0 .1 0 .73.73 0 0 1 .5-.2 1.33 1.33 0 0 0 .4-.2c0 .1-.1.3.1.3a1.5 1.5 0 0 0 .1-.1h.3a.68.68 0 0 1 .3 0 1.85 1.85 0 0 0 .9.2.5.5 0 0 1 .2.1l-.4.1a.3.3 0 0 0 .1 0h.7a.15.15 0 0 0 .1 0c.1-.1.1 0 .2.1l.1.3.3-.4a.65.65 0 0 1 .6-.1.8.8 0 0 0 .3.1h1c.1 0 .1.1 0 .3a.47.47 0 0 0-.1.13h.2a.1.1 0 0 0 .1 0 .55.55 0 0 1 .5-.4.24.24 0 0 0 .2-.2.34.34 0 0 1 .2-.1l-.4-.2h.2v-.2c.1 0 .3-.1.4-.1a.3.3 0 0 1 .2.07l-.1.2.1.1-.3.2.3.2-.1.2c.3.1.3-.2.5-.2l.1.2c-.3.1-.3.1-.2.4a.52.52 0 0 0 .4-.1.67.67 0 0 1 .6-.3l-.1-.2c.3-.1.5 0 .5.3h-.2c-.1.1.1.3-.1.4l-.4.2v-.2h-.3l.2.2a3.44 3.44 0 0 0-.4-.1.34.34 0 0 0-.2.1l.04.1a.47.47 0 0 1-.7 0 .67.67 0 0 0-.3 0l.6.3a.65.65 0 0 1-.5.2.2.2 0 0 0-.2 0 .3.3 0 0 1-.5.1l-.3-.1c0 .17 0 .17.2.2a.66.66 0 0 1 .1.1.45.45 0 0 1-.14.1 1.8 1.8 0 0 0-1 .6 1.26 1.26 0 0 0-.25.25c-.1.1-.1.3-.2.45l.3-.1a.43.43 0 0 1-.1.5.84.84 0 0 0 .24 0 .58.58 0 0 1 .66.2.36.36 0 0 0 .3.16.88.88 0 0 0 .7.2l-.3.9c.3.13.3.14.1.3a.28.28 0 0 0 0 .2l.2-.1.1.3v-.3.2a.53.53 0 0 0 .1-.1l.1-.3a.8.8 0 0 0 .06-.2l.1-.4a.18.18 0 0 0 0-.1c-.1-.2.1-.2.2-.28a1.12 1.12 0 0 0 .7-.5.36.36 0 0 0-.03-.5v-.1l.5-.4h-.1c.2-.1.2-.1 0-.1.1-.1.3-.1.1-.2a.22.22 0 0 1 .1-.2.2.2 0 0 1 .2 0 1 1 0 0 0 .7 0 1.93 1.93 0 0 0 .1.23.28.28 0 0 0 .2.1c.1 0 .2.1.1.3h-.2l.2.06-.2.2a.35.35 0 0 0 0 .1.37.37 0 0 0 .1 0 1.07 1.07 0 0 0 .2-.1c0 .24-.2.2-.3.3h.3l.2-.1.3-.1v.1l.5-.5h.1v.2l.2.1-.2.1.2.06v.2h-.2l.2.4v.2l.6.1-.7.3.05.1.63-.3-.1.1.2-.1c.1.1.1.2-.2.3l.2.1a2 2 0 0 1-.5.2 2.1 2.1 0 0 0-.5.3 1.1 1.1 0 0 1-.3.1h-.6a.47.47 0 0 0-.2.06l-.3.2a4.67 4.67 0 0 0-.4.3.12.12 0 0 1-.2 0 .53.53 0 0 0-.2-.02v.1l.2.2-.4.3a.9.9 0 0 0 .2-.05 5.57 5.57 0 0 1 .6-.4 1.38 1.38 0 0 1 .9-.2c0 .3 0 .3-.37.25a.45.45 0 0 0-.3.1l.4.1-.1.16a.56.56 0 0 1 .1.3.32.32 0 0 1-.36.25.15.15 0 0 0-.1 0 1.2 1.2 0 0 1-.25.1.48.48 0 0 1-.4.1h-.1c-.1.2-.4.1-.5.3a1.62 1.62 0 0 1-.1.2c0 .1-.1.2 0 .2a.32.32 0 0 1 0 .18c-.1-.1-.28-.2-.3 0a.62.62 0 0 1-.3 0 .34.34 0 0 0-.4.3.4.4 0 0 1-.4.3v-.1c-.2 0-.2.2-.3.33v-.2c-.3.2-.1.4 0 .5h-.4a1 1 0 0 1 .3.3c.1.2-.1.1-.2.2l.2.1c-.2-.2-.3.1-.3.1a1 1 0 0 1-.5.4.7.7 0 0 0-.2.2l-.3.2a.75.75 0 0 0-.17.1 2.16 2.16 0 0 0-.2.3.43.43 0 0 0 0 .2c0 .4.1.77.1 1.15a3 3 0 0 1-.1.58h-.1a2.2 2.2 0 0 0-.1-.2 1.83 1.83 0 0 0-.1-.4.7.7 0 0 1 0-.4.7.7 0 0 0-.2-.6.72.72 0 0 0-.3.1 1.17 1.17 0 0 0-.7-.3.52.52 0 0 1-.46.1 1.53 1.53 0 0 0-.28.1l.3.2-.4.1-.2-.3-.1.1c-.2 0-.3-.3-.5 0l-.2-.1a.34.34 0 0 1-.4.3h-.1a1 1 0 0 0-.4.7.6.6 0 0 1 0 .3 3 3 0 0 0-.2 1.2 1.06 1.06 0 0 0 .1.4 5.07 5.07 0 0 0 .2.5.73.73 0 0 0 .8.3 2.55 2.55 0 0 1 .3 0 .3.3 0 0 0 .2-.1c.1-.2.1-.4.2-.6a.4.4 0 0 1 .2-.2 6.06 6.06 0 0 1 .7-.1l-.1.27a.8.8 0 0 0-.1.14 1.1 1.1 0 0 1-.3.6.45.45 0 0 1-.27.1 2.47 2.47 0 0 1-.3 0l-.2.3.2-.2h.34v.4a.57.57 0 0 1 .4-.5l-.3.8.1.1-.4.5a.4.4 0 0 1-.5-.2 2.07 2.07 0 0 0-.2-.35 4.12 4.12 0 0 0-.4-.3 1.2 1.2 0 0 0-.1.1.35.35 0 0 1-.5.1c-.1-.1-.2-.2-.3-.2l-.5-.3a.35.35 0 0 1-.1-.08.62.62 0 0 0-.4-.2.68.68 0 0 1-.28-.2 1 1 0 0 0-.1-.1.38.38 0 0 1-.18-.7.35.35 0 0 0 0-.2 1.3 1.3 0 0 0 0-.2.87.87 0 0 0-.05-.2l-.4-.7a3 3 0 0 0-.2-.3c.2-.2-.1-.3-.2-.4s-.1-.14 0-.2a.92.92 0 0 1-.3-1.07l-.4-.27a2.78 2.78 0 0 0-.1.52 1.9 1.9 0 0 0 .17.4l.2.5.2.7v.1a.6.6 0 0 0 .1.2.47.47 0 0 1 .2.1.82.82 0 0 1 0 .2l-.4-.5a.42.42 0 0 1 0-.2c0-.16.1-.3-.1-.4a.36.36 0 0 1 0-.17c-.2.1-.2-.1-.3-.2h.2a.5.5 0 0 0-.1-.6.24.24 0 0 1-.1-.2c0-.24 0-.5-.1-.8h.5c-.2 0-.5.1-.5-.3a.4.4 0 0 0-.5-.2l-.13-.5c0-.1-.1-.14 0-.2a.14.14 0 0 0 0-.1c-.1-.1 0-.2 0-.3h.2c0-.2 0-.2-.3-.1a4.4 4.4 0 0 1 0-.7c0-.13.14-.24.2-.4a4.43 4.43 0 0 1 .7-1.3.52.52 0 0 1 .2-.1l.1-.6.3.1-.2.26a.3.3 0 0 0 .36-.2c.1-.4.1-.4.5-.4m4 11.3l.4-.5h.3a2.57 2.57 0 0 0 .3 0 .43.43 0 0 1 .5.2.36.36 0 0 1 .1.5 5.9 5.9 0 0 0-.2.9h-.1a.2.2 0 0 0 0 .1.68.68 0 0 1 .3.4.52.52 0 0 0 .4.3.77.77 0 0 0 .4-.16.42.42 0 0 1 .6.2 1.35 1.35 0 0 0 .2.27c0-.2.1-.3.1-.4a.25.25 0 0 1 .1-.16c.1 0 .1-.14.1-.2a3.63 3.63 0 0 1 .1-.38l.1.12.1-.1a1.8 1.8 0 0 0 .7-.4l-.34.34c.2 0 .2.02.1.2l-.1.1v.2a.16.16 0 0 0 .2.1c.2-.1.1-.2.1-.3a2.76 2.76 0 0 0-.1-.3l.7-.17a.34.34 0 0 0 .5.3.17.17 0 0 1 .1 0 .47.47 0 0 0 .7 0l.2-.1c-.1.4.3.2.5.4l-.2.2c-.1.1 0 .1.1.1l.27-.1-.05.2c.5 0 .4.4.4.7h.1l.1-.22.3.4a.13.13 0 0 1 .1-.03h.6c.2 0 .1.1.1.1a1 1 0 0 0 0 .4.67.67 0 0 1 0 .43.46.46 0 0 0 0 .1.78.78 0 0 1 .2 0 .2.2 0 0 0 .3-.2 1.2 1.2 0 0 1 .2-.3l.2-.1a4.67 4.67 0 0 0 .1.44c0 .1.1.2.1.3a.32.32 0 0 1 0 .3c-.07.1-.2.2-.3.36s-.2.3-.3.5h.3a.58.58 0 0 0 0 .1.14.14 0 0 0 .1.1.15.15 0 0 0 .1 0c0-.2.2-.1.3-.2v.3a5.5 5.5 0 0 1 .33-.5.3.3 0 0 1 .2-.1 1.66 1.66 0 0 1 .3.2.74.74 0 0 0 .2.04.14.14 0 0 1 .1.2 1.75 1.75 0 0 0-.1.35l.2-.2a.3.3 0 0 1 .35-.1 1.64 1.64 0 0 0 .5.1.75.75 0 0 1 .5.2c.15.1.25.3.4.4a.3.3 0 0 0 .2.1.28.28 0 0 1 .3.3 3.82 3.82 0 0 1 .07.7.94.94 0 0 1-.5.7.23.23 0 0 0-.1.1l-.2.6-.2-.1a9.3 9.3 0 0 1 0 1.6 1.56 1.56 0 0 1-.3 1 .33.33 0 0 0 0 .1.3.3 0 0 1-.15.3.4.4 0 0 0-.1.2h-.58a.33.33 0 0 0-.2 0c-.2.16-.5.3-.7.5a1.7 1.7 0 0 0-.2.38.2.2 0 0 0 0 .1 3.36 3.36 0 0 1 .1.6 1 1 0 0 1-.17.3l-.1.3c-.1.2-.1 0-.2 0v.2a.3.3 0 0 1 0 .2.52.52 0 0 0-.2.4 1.42 1.42 0 0 1-.4.7 1.2 1.2 0 0 1-.8-.16.32.32 0 0 1-.1-.4.48.48 0 0 0 0-.2v.7a.42.42 0 0 1 .4.4.15.15 0 0 0 0 .1.38.38 0 0 1-.1.6 1.16 1.16 0 0 1-.8.2.9.9 0 0 0-.2 0l.2.6c-.2.3-.4 0-.6 0a.43.43 0 0 0 .2.5 5.75 5.75 0 0 1 0 .6.32.32 0 0 1-.18.3.3.3 0 0 0-.2.4.5.5 0 0 0 .4.3h.16a.6.6 0 0 1-.2.4.83.83 0 0 0-.1.4l-.2-.1.1.6.2.1-.33.2v.3a.2.2 0 0 1 0-.1c0-.2-.1-.2-.2-.3a.8.8 0 0 1-.2-.1h.3a.4.4 0 0 1-.4-.3.33.33 0 0 0-.1-.1c-.3 0-.4-.2-.3-.5l-.1.13c-.1 0 0-.3-.2-.1l-.1-.3h.2a1 1 0 0 1-.4-.5.37.37 0 0 0 0-.2.72.72 0 0 1 0-.5.1.1 0 0 0 0-.1.67.67 0 0 1-.15-.6v-.3c-.3 0-.4 0-.4-.3a2.18 2.18 0 0 0-.1-.8.22.22 0 0 0-.1-.1 1.5 1.5 0 0 0 .1-.3v-.9a.66.66 0 0 1 0-.2.72.72 0 0 0-.1-.6.3.3 0 0 1 0-.4.12.12 0 0 0 0-.1 1.67 1.67 0 0 1 0-.87 2.58 2.58 0 0 1 0-.4v-.1a1.3 1.3 0 0 0 0-.2v-.1l-.1-1.8a.34.34 0 0 1 0-.1l-.3-.25-.44-.4-.84-.7a.1.1 0 0 1 0-.1 1.67 1.67 0 0 0-.3-.8c-.26-.5-.5-1-.7-1.5a1.24 1.24 0 0 0-.3-.22c0-.1 0-.26-.1-.4a.3.3 0 0 1 .2-.3l.36.4.1-.4-.1.3a.37.37 0 0 1-.2-.6.63.63 0 0 0 0-.3l-.1.2a.47.47 0 0 1-.1-.5 3.35 3.35 0 0 0 .2-.4.25.25 0 0 1 .1-.18.44.44 0 0 0 .3-.3.5.5 0 0 1 0-.1c.1 0 .1-.1.2-.2a.44.44 0 0 0 0-.5.8.8 0 0 1 0-.3 3.75 3.75 0 0 0 0-.4c0-.1-.2-.2 0-.3a.07.07 0 0 0 0-.07.8.8 0 0 0-.5-.3.66.66 0 0 0-.2.2.84.84 0 0 0-.1.3l-.1.1-.1-.2a2.74 2.74 0 0 1-.3-.2 4.28 4.28 0 0 1-.5-.5c-.1-.2-.1-.2-.3 0l-.1-.5a.82.82 0 0 1-.4-.6.84.84 0 0 0-.1-.2.36.36 0 0 1-.5 0zm9.1 12.5l.1-.1.2.4a.34.34 0 0 0-.3-.4zm-3.3 4v.7-.7zm-.9-12.4c-.3.2-.3.2-.2.3 0-.2.2-.1.2-.1s0-.2-.2-.2zm.8 3.4c.2 0 .2 0 .2.3s0 .24.1.3v-.5h-.2zm12.6-24.5l-.9-.4-.1.2h.4-.4l-.1.3h.9v.1a5.16 5.16 0 0 1-.6.3c-.2.1-.5.1-.7.2a.2.2 0 0 1-.3-.1.53.53 0 0 0-.06-.1 1.27 1.27 0 0 1-.8.8.16.16 0 0 1-.1 0c0-.2-.2-.1-.3-.2 0 .3-.2.1-.4.2v.2h-.2v.3l-.3.2v.1h-.3l.1.1a.65.65 0 0 1-.6.34l.1-.1v-.1a.84.84 0 0 0-.2 0c-.2.1-.4.1-.4-.2s-.2-.1-.3-.2l.2-.12v-.1l-.1-.2h.3c0-.3-.3-.2-.4-.25v-.1l.4-.1-.4-.2.6-.2-.2-.1h.25a1.3 1.3 0 0 1-.15-.2.23.23 0 0 1 0-.14c.27 0 .2-.2.27-.4a.42.42 0 0 0-.2-.4l-.1-.1-.4.2a.25.25 0 0 1-.1 0c.4-.1.4-.3.3-.8a.2.2 0 0 1-.2-.3 7.17 7.17 0 0 0-1.65-.1l.2-.1h-.3.6a.42.42 0 0 0 .1-.1.46.46 0 0 0-.1-.1h-.8a.54.54 0 0 1 .1-.1c.3 0 .6 0 .87-.1a5 5 0 0 0 .7-.2.6.6 0 0 0 .2-.2h.53v-.2a.4.4 0 0 1 .4.04c.1.1.1.2.2 0l-.1-.2a.85.85 0 0 1 .6.1.4.4 0 0 0 .2 0h.4v-.1a.53.53 0 0 1 .1 0 3 3 0 0 0 1.5-.1 5.22 5.22 0 0 1 .8 0h1.5a.14.14 0 0 1 .1 0h-2a.48.48 0 0 0-.2.1v.1l1.7-.1-.45.2c.1.2.1.2.2.1a.62.62 0 0 1 .5-.1 1.1 1.1 0 0 0 .44-.1 2.14 2.14 0 0 1 .7 0v.1l-1.3.1.1.1-.1.1.2.1-.4.22a.22.22 0 0 0-.1.2.2.2 0 0 0 .1.1h.4v.1h-.7c0 .3.3.1.5.3l-.5-.1-.1.5-.6-.1a.22.22 0 0 1 0 .02.48.48 0 0 1 0 .1.23.23 0 0 1-.1 0c-.2-.1-.3-.1-.3.1a.76.76 0 0 0 .5.2c.4-.1.4.1.4.4z"/>
        <path d="M224.13 501.28l-.57-.2a.3.3 0 0 0-.13 0l.05.13a1.12 1.12 0 0 1-.67-.1.52.52 0 0 0-.2 0 2.8 2.8 0 0 1 .6 0 .17.17 0 0 0 .2-.1.78.78 0 0 0 .1-.2l.2.1c.1-.1.1-.1-.1-.2h.4l.1-.2h.5c.1.3-.1.2-.2.3s0 .2.3 0l.4.2v-.2l.6.3.4-.1v.1l-.3.1c.1.3.1.3.3.1a1 1 0 0 1 .4-.1l-.3.2v.4l.7.3h-.1a1.08 1.08 0 0 0 .1.2.16.16 0 0 0 .1 0l.1-.1v.1l-.4.3v.2c-.1-.1-.1-.1 0-.4a.76.76 0 0 1-.2.1.35.35 0 0 1-.2 0c-.1-.2-.2-.1-.3 0l.1.1h-.2v.1l.2.3c.2.3.2.3.1.6l-.3-.2a.55.55 0 0 0-.1 0 .2.2 0 0 0-.1.1l.2.3.2.2h-.1l-.4-.2h-.1c-.2 0-.2-.1-.1-.2-.1-.1-.4 0-.2-.3l-.3-.1v-.1h.4l-.1-.2.4-.1a.3.3 0 0 0 .1-.4l-.6-.6a.4.4 0 0 0-.2 0zm-6.9-.08h1.15v-.06a.73.73 0 0 0-.52-.1h-.55V501l.8-.12v-.08h-.5a1.23 1.23 0 0 1 .9-.4l-.1.12a1.43 1.43 0 0 0 .3 0 .72.72 0 0 0 .2-.1v.06l-.1.14.1.1v-.07l.3-.08a.85.85 0 0 0 .2-.13v.38a.2.2 0 0 0 .3-.16.32.32 0 0 1 .5-.27.7.7 0 0 1-.2.4.23.23 0 0 0 0 .1c.1 0 .2.1.3.2a.67.67 0 0 0-.5.1h.2a.5.5 0 0 1-.7-.1 2.62 2.62 0 0 1-1.4.2l.1-.2h-.3c.1-.1 0 0 0-.2zm7.9-2.46l.34.13a.7.7 0 0 0 .2.07.57.57 0 0 0 .18-.05l-.15-.2h.6c.15 0 .15 0 .17-.2h-1.23a1 1 0 0 1-.27-.1h.28a.5.5 0 0 0 .4-.1.84.84 0 0 1 .45 0l.38.1-.12-.3h2.73c-.5.1-1 .1-1.5.2l.5-.1-.5.1-.3.1h-.4l-1 .1a.22.22 0 0 0-.2.1h.2l-.3.1a.85.85 0 0 0-.2.1.3.3 0 0 1-.5 0 .75.75 0 0 0-.3-.1c.1-.2.4 0 .5-.2a1.1 1.1 0 0 1-.3 0 .53.53 0 0 1-.2-.2zm-8.65 2.16l-.14-.28.67-.3a.27.27 0 0 0 .2-.14 1.33 1.33 0 0 1 .8 0 .17.17 0 0 0 .2 0 .22.22 0 0 1 .4.15l-.2.06a3.26 3.26 0 0 0-.9.2 3.57 3.57 0 0 1-.6.2zm9.75 6l-.1.25h.5a3.57 3.57 0 0 1-.16.35.22.22 0 0 1-.37.1.17.17 0 0 0-.12 0 1 1 0 0 1-.72 0c.2-.07.22-.28.4-.3a.1.1 0 0 0 .08-.06.87.87 0 0 1 .36-.56.63.63 0 0 1 .23-.2c-.06.25-.33.35-.38.6h.05zm-.86 14.46a1.2 1.2 0 0 0-.13.28.2.2 0 0 1-.26.2.78.78 0 0 0-.2 0 .46.46 0 0 1 0-.14.67.67 0 0 0 0-.44 1 1 0 0 1 0-.4.4.4 0 0 1 .16 0 .57.57 0 0 1 .4.34.52.52 0 0 1 .03.16zM220 516.2l-.77.1.23-.25c-.27 0-.44-.06-.4-.32a.37.37 0 0 1-.43-.15.2.2 0 0 0-.1 0c-.08 0-.16 0-.18-.1a.5.5 0 0 0-.24-.1.67.67 0 0 1 .7.1.2.2 0 0 0 .1.06 3.8 3.8 0 0 1 .8.44 1.43 1.43 0 0 1 .4.23zm1.48.56a2.43 2.43 0 0 1-.46 0c-.17 0-.3 0-.34.18l-.05-.15a1.2 1.2 0 0 1-.65-.1l.56.1-.17-.5h.12a.3.3 0 0 0 .2 0 .65.65 0 0 1 .4 0 1.1 1.1 0 0 1 .2.2 1.26 1.26 0 0 1 .1.2zm3.42-16.83a.9.9 0 0 1-.24.08H223a.3.3 0 0 1-.1 0l.2-.3a.18.18 0 0 1 .1 0 .26.26 0 0 0 .34.2h1.38v.1zm-.2-1.03a3 3 0 0 1-.48.2 1.5 1.5 0 0 1-.43 0h-.3v-.1h.6v-.07h-.4a.34.34 0 0 1-.1-.07l.1-.07a.66.66 0 0 1 .4-.2z"/>
        <path d="M223.2 500.84h-.7a1.3 1.3 0 0 1 1.2-.63c-.25.2-.57.3-.5.7zm-1.37 2.22a.63.63 0 0 1 .32-.64c0 .06 0 .24.2.15a.42.42 0 0 1 .27.1.58.58 0 0 1 0 .2h.23c-.17.1-.26.08-.36-.15zm-1.7-3.26l.2-.27v.27l.38-.1v.05a3.38 3.38 0 0 1-.4.18 2.94 2.94 0 0 1-.5 0c-.1-.27-.4-.07-.6-.1a2.74 2.74 0 0 0-.3 0 .7.7 0 0 0 .6-.25.82.82 0 0 1 .4.2.82.82 0 0 0 .4.05zm4.4 39.8h-.7l.1-.15-.4-.1.23-.16-.3-.1c.08-.2.16-.2.3-.1a2.2 2.2 0 0 0 .78.5zm-3.8-39a.36.36 0 0 0 .4-.3h.4c-.17.05-.23.13-.1.26-.1.1-.17.3-.4.18H221c-.2.1-.2.1-.26-.15zm1.04.06a.27.27 0 0 1 .18-.36 1.4 1.4 0 0 1 .83-.1 1 1 0 0 1-.75.3.62.62 0 0 0-.26.16zm2.08-1.06c.12-.23.43 0 .45-.32a.74.74 0 0 0 .73.1v.1l.46.07a.64.64 0 0 1-.6 0 1.26 1.26 0 0 0-.5 0zm1.87 23.4v-.4h.42c.08.34-.05.47-.42.4zm-6.82-23.37l.18-.14a1.36 1.36 0 0 1-1.06.2l1.22-.3c0 .1 0 .1-.35.2zm-8.18 7.47h.08l-.2-.25h.33a1 1 0 0 1 .24.5.7.7 0 0 1-.2.08c.03-.3-.17-.24-.25-.34zm13.18 1.35a.38.38 0 0 1 0 .17 1 1 0 0 1-.24.24.4.4 0 0 1-.2 0 .44.44 0 0 1 .07-.2 2.8 2.8 0 0 1 .34-.2zm.3-.12h-.17a.26.26 0 0 1 .1 0c.1 0 .16.06.24.07a2.25 2.25 0 0 0 .3 0 1.78 1.78 0 0 1-.22.16 1.58 1.58 0 0 1-.28.1.4.4 0 0 1-.14 0 .52.52 0 0 1 .08-.12.34.34 0 0 1 .2 0zm-.8-5.67a.52.52 0 0 1 .55-.14c-.03.24-.2.3-.54.14zm-1.55-3.76l.47.22a.36.36 0 0 1 0 .12 2.46 2.46 0 0 1-.4-.1.42.42 0 0 1-.1-.2zM208 503.92l.66-.2v.08a.48.48 0 0 1-.15.14 4.3 4.3 0 0 1-.4.1v-.08zm16.1-1.97c0-.22.13-.3.4-.25-.04.24-.12.3-.4.25zm1.03-1.5h-.53a.26.26 0 0 1-.1-.07.27.27 0 0 1 .1-.07 2.8 2.8 0 0 1 .42 0 .4.4 0 0 1 .14.1zm-4.46.88c0 .05.23 0 .12.26l-.6-.1zm.9-1.5h.24v-.16l.4-.08a.4.4 0 0 1-.6.2zm-1.24 19.73v-.16l.2-.15a.8.8 0 0 1 0 .4c-.06.13-.12-.06-.2-.1zm2.45 18.94v.12a.25.25 0 0 1-.35-.2.32.32 0 0 1 .38.07zm-.63-21.57h-.4a.38.38 0 0 1 .06-.17.34.34 0 0 1 .4.17zm-.02-17l.5-.13c-.07.2-.12.26-.5.13zM205 505.1l.55-.15-.53.2zm15.83 5.1c0 .13.1.28-.08.36-.1-.27-.07-.32.1-.35zm3.94-3l-.36-.15v-.07l.4.13zm3.83-6c.3 0 .32 0 .3.2l-.33-.15zm-2.17 6.7l.16-.28c.1.2 0 .3-.2.3zm-8.83 7.7l.33-.24.05.08-.33.2zm4.4-12.32c.07-.17.22-.1.36-.1l-.32.17zm-2.58 13.62a1.77 1.77 0 0 1-.25 0 .13.13 0 0 1-.07-.1.1.1 0 0 1 .07-.05l.26.07zM219 500h.46a.6.6 0 0 1-.46.1v-.1zm2.9 37.15h-.33l.14-.22.2.24zm1.1-37.9h-.26v-.1h.25zm-2.93.05h.3v.07a.63.63 0 0 1-.3 0z"/>
        <path fill="#fff" d="M225.1 530.66v-.14a.34.34 0 0 1 .3.44l-.2-.37zm-3.27 4v.72-.72zm-1.03-12.12c0-.13 0-.13.2-.27l-.17-.07"/>
      </g>
      <text fill="#010101" transform="translate(199.19 308.1)" font-size="6" font-family="Roboto Slab">
        Slightly <tspan x="23.77" y="0">m</tspan><tspan x="29.41" y="0">o</tspan><tspan x="32.77" y="0">r</tspan><tspan x="35.2" y="0">e li</tspan><tspan x="43.78" y="0">k</tspan><tspan x="47.36" y="0">ely </tspan><tspan x="57.38" y="0">t</tspan><tspan x="59.51" y="0">o be male</tspan>
      </text>
      <text fill="#010101" transform="translate(322.69 308.1)" font-size="6" font-family="Roboto Slab">
        Slightly <tspan x="23.77" y="0">m</tspan><tspan x="29.41" y="0">o</tspan><tspan x="32.77" y="0">r</tspan><tspan x="35.2" y="0">e li</tspan><tspan x="43.78" y="0">k</tspan><tspan x="47.36" y="0">ely </tspan><tspan x="57.38" y="0">t</tspan><tspan x="59.51" y="0">o be </tspan><tspan x="72.56" y="0">f</tspan><tspan x="74.63" y="0">emale, s</tspan><tspan x="97.67" y="0">k</tspan><tspan x="101.26" y="0">ew liberal</tspan>
      </text>
      <path fill="#fff200" d="M344.32 369.32V382a12.68 12.68 0 0 1-12.26-15.84v-.06l.15-.52z"/>
      <g id="PbtbKO.tif">
        <path d="M351.84 451a.6.6 0 0 1-.56-.36l-.2-.7a.92.92 0 0 0-.13-.2l-.17-.26-.08.12a.56.56 0 0 1 0-.22.77.77 0 0 0 0-.6.7.7 0 0 1 0-.18.37.37 0 0 0 0-.17.9.9 0 0 1-.18-.53.84.84 0 0 0-.16-.33h-.06l-.25.35H350a.73.73 0 0 1-.06-.24.38.38 0 0 0-.25-.4 6.68 6.68 0 0 1-.4-.63l-.5.07-.1-.16-.3.26a.34.34 0 0 1-.2.4 1.24 1.24 0 0 0-.5.56.2.2 0 0 1-.1.08.57.57 0 0 0-.3.64v.43a.4.4 0 0 0 0 .14c0 .1 0 .18-.1.22l-.2.3a.16.16 0 0 1-.3 0l-.3-.6s-.1-.1-.1-.2l-.2-.3-.2-.4a3.2 3.2 0 0 1-.2-.6 1.77 1.77 0 0 1-.2-.7.94.94 0 0 0-.1-.3.12.12 0 0 0-.1.1.2.2 0 0 1-.1.2.22.22 0 0 1-.2 0 3.67 3.67 0 0 1-.4-.3l.2-.2a.3.3 0 0 1-.4-.2.52.52 0 0 0-.3-.1.3.3 0 0 1-.1-.1.54.54 0 0 0-.7-.2 2.4 2.4 0 0 1-.9 0 .35.35 0 0 1-.2-.2.2.2 0 0 0-.4-.1.36.36 0 0 1-.4 0 .55.55 0 0 0-.2-.1.32.32 0 0 1-.4-.3.5.5 0 0 0-.1-.2c-.1-.2-.2-.1-.4 0a1.56 1.56 0 0 0 .3.5 2.9 2.9 0 0 1 .4.5.37.37 0 0 0 .6 0l.4-.5a.36.36 0 0 1 0 .1.35.35 0 0 0 .2.4.63.63 0 0 1 .4.4.22.22 0 0 1 0 .1l-.2.3a1.35 1.35 0 0 1-.4.5.7.7 0 0 1-.4.3 1.13 1.13 0 0 0-.2.1.27.27 0 0 1-.1.1l-.5.1-.7.3-.1.1a.28.28 0 0 1-.5-.2.6.6 0 0 1-.1-.3 1.1 1.1 0 0 0-.3-.7.8.8 0 0 0-.3-.4.5.5 0 0 1-.2-.3.45.45 0 0 0-.3-.5.37.37 0 0 1-.1-.2l-.5-.7a1 1 0 0 1-.1-.3c-.2.1 0 .2-.1.4a.44.44 0 0 1-.2-.3 2.33 2.33 0 0 1-.2-.3h-.2a.34.34 0 0 0 0 .1l.2.3.3.5a1.92 1.92 0 0 0 .2.2.14.14 0 0 0 0 .2 1.36 1.36 0 0 1 .3.7 1.53 1.53 0 0 0 .2.2.65.65 0 0 1 .2.4.14.14 0 0 0 .1.1l.4.3.2.1a.15.15 0 0 1 .1.2.27.27 0 0 0 0 .2.82.82 0 0 0 .2.2l1-.3.1-.1a.16.16 0 0 1 .1 0 .13.13 0 0 1 0 .1 1.42 1.42 0 0 1-.2.6.12.12 0 0 0 0 .1 1.86 1.86 0 0 1-.7 1.1 5.9 5.9 0 0 0-.6.5c-.2.1-.3.3-.4.5a.83.83 0 0 0-.3.8 4.68 4.68 0 0 1 0 .5.1.1 0 0 0 0 .1.7.7 0 0 1 .1.67.85.85 0 0 1 0 .2 1.73 1.73 0 0 0 0 .2.24.24 0 0 1 0 .2.64.64 0 0 1-.47.2.13.13 0 0 0-.1.1.84.84 0 0 1-.3.4.3.3 0 0 0-.1.3 2.57 2.57 0 0 1 0 .5.42.42 0 0 1-.3.33.6.6 0 0 0-.2.1.25.25 0 0 0 0 .2.48.48 0 0 1-.2.4 3.4 3.4 0 0 0-.3.47.4.4 0 0 1-.1.1 1.15 1.15 0 0 0-.4.4.5.5 0 0 1-.4.1c-.2 0-.4 0-.5.1a1.28 1.28 0 0 0-.3.17.14.14 0 0 1-.1 0 .6.6 0 0 1-.2-.3.13.13 0 0 0 0-.1.13.13 0 0 1 0-.2.2.2 0 0 0 0-.3.64.64 0 0 1-.2-.5.15.15 0 0 0 0-.1.35.35 0 0 1-.2-.3c0-.2-.1-.4-.1-.6v-.3a1 1 0 0 0-.1-.23 1.77 1.77 0 0 1-.3-.5 1.35 1.35 0 0 1 .3-1.13.4.4 0 0 0 0-.5.47.47 0 0 1 0-.4.18.18 0 0 0 0-.1 1.87 1.87 0 0 0-.6-.9 1.12 1.12 0 0 1-.2-.3 1.65 1.65 0 0 0 .2-1l-.3-.2a1.48 1.48 0 0 1-.4 0 .5.5 0 0 1-.2-.2.37.37 0 0 0-.4-.2l-.8.3a.5.5 0 0 1-.2 0 1 1 0 0 0-.7.1.45.45 0 0 1-.6-.2.85.85 0 0 0-.5-.36.2.2 0 0 1-.1-.1l-.4-.6a.34.34 0 0 0-.2-.3.2.2 0 0 1-.1-.2.36.36 0 0 0-.1-.3.33.33 0 0 1 0-.1l.1-.2a.42.42 0 0 1 0-.1.3.3 0 0 0 0-.3.3.3 0 0 1 0-.3.2.2 0 0 0-.1-.1.16.16 0 0 1 0-.2.82.82 0 0 0 .1-.2.35.35 0 0 1 .2-.3 2.1 2.1 0 0 1 .38-.6.17.17 0 0 1 .1-.1l.4-.2a.27.27 0 0 0 .1-.2.8.8 0 0 1 .4-.8.76.76 0 0 0 .3-.4.34.34 0 0 0-.4-.2.16.16 0 0 1-.2-.1 1.67 1.67 0 0 1 0-.6 1.7 1.7 0 0 0 0-.5c0-.2 0-.3.2-.22a6 6 0 0 0 .67 0c.4 0 .4 0 .5-.4a.5.5 0 0 0 0-.3 2.12 2.12 0 0 0-.4-.4.38.38 0 0 0-.2 0v-.2h.5v-.1a.34.34 0 0 1 .1.1c0 .1.1.1.2 0a.62.62 0 0 1 .1-.1.2.2 0 0 0 .1 0 .67.67 0 0 1 .3-.3l.2-.33.1.1-.1-.2a.1.1 0 0 1 .1 0 .2.2 0 0 0 .3-.1.5.5 0 0 1 .2 0 4.3 4.3 0 0 0-.1-.43c0-.1 0-.13.1-.15a.84.84 0 0 0 .2-.1 2.22 2.22 0 0 0 .17.2.2.2 0 0 0 .1 0 .4.4 0 0 0 .1-.2.23.23 0 0 0 0-.1.7.7 0 0 1-.2-.5.38.38 0 0 0-.1-.2 1.12 1.12 0 0 1-.2.3.52.52 0 0 1-.3.1c-.3 0-.33-.1-.2-.3l-.1-.2v-.1l-.1-.4h.2-.2.3-.2l.2-.1c.1 0 .2-.1.2-.3l.3.1-.2-.2.1-.1c.1.2.3.1.4-.1l-.2.1a.68.68 0 0 1-.1 0 .47.47 0 0 1 .1-.1 1 1 0 0 0 .3-.4.73.73 0 0 1 .2-.2v-.1c.1-.1.3-.2.2-.3l.4-.3.1.1.2-.2v-.1c0-.1.2 0 .3.1v.1-.2h.2l-.04-.2.1.1.1-.1.1.2.1-.2.4.1-.2.1h.54c0 .1.1.2.2.1a.94.94 0 0 1 .7.2.67.67 0 0 0 .2.1.37.37 0 0 1 .2.5.5.5 0 0 1-.4.1c-.3 0-.5-.1-.7-.17a.85.85 0 0 0-.3 0 2.65 2.65 0 0 1 .4.2.33.33 0 0 1 .12.2.4.4 0 0 0 .4.4 1.1 1.1 0 0 0 .3 0l-.4-.3a.45.45 0 0 1 .2 0 .28.28 0 0 0 .4 0c-.07-.1-.1-.27.1-.3.1-.2.13-.2.3 0h.1a.3.3 0 0 0-.1-.3.12.12 0 0 1-.1 0 .37.37 0 0 0-.2-.35 3.52 3.52 0 0 0 .4 0 .32.32 0 0 1 .3.2l-.26.1a.33.33 0 0 0 .4.2 1.94 1.94 0 0 1 0-.2.45.45 0 0 1 .3-.2 1 1 0 0 0 .5-.3.3.3 0 0 1 .2 0 .35.35 0 0 0-.2.4h.2c-.08-.2 0-.2.15-.2a1.6 1.6 0 0 0 .4-.15l.1.2h.1v-.2s0-.2.2-.2h.5l.5.2a.36.36 0 0 0-.4-.34 2.6 2.6 0 0 0 0-.2.2.2 0 0 0 0-.1c-.1-.16-.1-.2.1-.25v-.6a2.2 2.2 0 0 0 .3.1c.2 0 .2 0 .2.2a.26.26 0 0 0 .1.3.15.15 0 0 1 0 .2l.4.57v.2a.58.58 0 0 1 0 .1.85.85 0 0 1-.1.3.65.65 0 0 1-.3.1v.1h.2a1.57 1.57 0 0 0 .2 0 .24.24 0 0 0 .1-.1.72.72 0 0 0 .1-.2.57.57 0 0 0 0-.2.3.3 0 0 1 .1-.3.46.46 0 0 1 .3.3c0 .1.2.1.3.1a.55.55 0 0 1-.4-.4.3.3 0 0 0-.5-.1 1.22 1.22 0 0 1-.2 0c.1-.2-.2-.3 0-.5a2.7 2.7 0 0 1-.2-.3.24.24 0 0 1 0-.2.3.3 0 0 0 0-.4c.1 0 .2.1.2.2 0 .3 0 .4.3.4h.26c0-.1 0-.1-.1-.1a.93.93 0 0 1-.3 0 .34.34 0 0 1-.1-.15 1.5 1.5 0 0 1 .3 0 .24.24 0 0 1 .1.05l-.1-.15.1-.1-.1-.06a1 1 0 0 1 .2 0 1.25 1.25 0 0 1 .2.1.27.27 0 0 0 .3 0c.1 0 .1 0 .1.1a.67.67 0 0 1 0 .1.4.4 0 0 0 .28.5.26.26 0 0 0 .1 0 .25.25 0 0 0-.1-.1.18.18 0 0 1 0-.7.15.15 0 0 0 0-.1l-.17-.3-.4-.1a.5.5 0 0 1-.2-.4.14.14 0 0 1 .04-.1l.33-.1a.23.23 0 0 0 .1-.1.1.1 0 0 1 .2 0l-.1.1c.2-.1.2-.3.1-.4a.8.8 0 0 1-.1-.3.28.28 0 0 0 .2-.3.37.37 0 0 1 .2-.06c.1 0 .2 0 .1-.1l.4-.3a.72.72 0 0 0 .6 0l-.1-.2c.1-.1.2-.1.3 0l.2-.1h-.1a.18.18 0 0 1-.1-.2c0-.1.04-.2.1-.3a.37.37 0 0 1 .1-.1l.1.1s0 .1.02.1v.1l.3.1a.82.82 0 0 1 .5-.2 1.22 1.22 0 0 0 .2 0 .18.18 0 0 1 .1 0 3 3 0 0 1 .4.1.4.4 0 0 1 .06.12l-.2.1c.16.1.3.1.3.3a4.63 4.63 0 0 1-.3.4 2 2 0 0 1-.3.2.54.54 0 0 0-.2.4l.2-.1v-.1l.6-.2h-.3a.2.2 0 0 1 .3-.1c.1.1.14 0 .2-.1a.47.47 0 0 1 .2.3.2.2 0 0 0 0-.1c0-.1 0-.1.1-.2l.3-.1a.12.12 0 0 1 .2.1c0 .1.1.1.2 0a2.16 2.16 0 0 1 .3-.1h.1l-.2-.1a.72.72 0 0 1 0-.2.15.15 0 0 1 .1-.1.54.54 0 0 0 .33 0 1.44 1.44 0 0 1 .47 0l-.2.3a.14.14 0 0 0 0 .2v-.2l.28.1a.46.46 0 0 0 .1 0c.1 0 .2 0 .15.1a1.9 1.9 0 0 0 .4.15.55.55 0 0 0 .2 0 .43.43 0 0 1-.1-.5c.1.3.3.2.5.2l-.1-.2h.5v-.4h-.2a1.76 1.76 0 0 0 .1-.2.82.82 0 0 0 0-.1l.5-.1h.4a.15.15 0 0 1 .1 0 .53.53 0 0 1 0 .2v.1a.57.57 0 0 0 .2 0 .26.26 0 0 0 0-.1.82.82 0 0 1 0-.3 1.14 1.14 0 0 1 .4 0v.4h.8a.82.82 0 0 1 .14-.16 2.4 2.4 0 0 1 .5-.2.83.83 0 0 1 .3 0 .13.13 0 0 1 .03.1.3.3 0 0 0 .3.3h.1a.52.52 0 0 1 .4-.36l.4-.1.6.1a.2.2 0 0 0-.1-.3l-.16-.2a2.34 2.34 0 0 1 .3-.1.73.73 0 0 0 .4-.1.48.48 0 0 1 .3 0h.4a.3.3 0 0 1 .1 0l.4.2a.44.44 0 0 0 .2 0 .56.56 0 0 0 .56 0 1.17 1.17 0 0 1 .1.2.35.35 0 0 0 .3.26l-.3-.3a2.23 2.23 0 0 1 .5-.1 2.3 2.3 0 0 1 .5.2v.4h-.2l.3.4a.26.26 0 0 1-.4 0 .45.45 0 0 1-.1.1l-.4-.2v-.1a.27.27 0 0 0-.1.1c-.07.1-.1.1-.2 0l-.2-.2a.2.2 0 0 0 0 .1.43.43 0 0 1 .1.6c0 .1-.1.2.1.3a.4.4 0 0 0 .3.3c.1 0 .1.2.1.3a.45.45 0 0 0-.2 0 .65.65 0 0 0-.3.2 1.53 1.53 0 0 0-.2.4l-.1.5-.03.2a1.6 1.6 0 0 0 0 .2l-.1-.1a.2.2 0 0 0-.3.1 1.8 1.8 0 0 1-.1.2v-.3l-.1.4h-.2a.66.66 0 0 0 0 .2v.8c.2-.1.2 0 .3.1a.4.4 0 0 0 .3.3.46.46 0 0 1 .1.2l-.2-.1a.5.5 0 0 0 .1.4c.03.1.1.2-.1.2a.15.15 0 0 0-.06.2.12.12 0 0 1 0 .2.7.7 0 0 1 0 .8.36.36 0 0 1-.04-.1l-.3-.5-.5-.8a3 3 0 0 1-.2-.4.07.07 0 0 1 0-.1c.2-.1 0-.2 0-.3a1.55 1.55 0 0 1 .2-.4 3.06 3.06 0 0 0 .2-.6v-.1l.1-.3a.32.32 0 0 0 .1-.1 1.05 1.05 0 0 0-.1-.3c-.06-.2-.04-.2.15-.3h-.3c.03.1-.17.2 0 .3a.5.5 0 0 1 .1.2h-.2v.4a.43.43 0 0 1-.36-.4h-.3a1.23 1.23 0 0 0-.2.3 1.4 1.4 0 0 0-.1.3.52.52 0 0 1 0 .2.2.2 0 0 0 .1.3l.1.1a.9.9 0 0 1-.1.1l-.4.3a.48.48 0 0 1-.1 0v-.2h-.6a.15.15 0 0 0-.1 0c0 .1 0 .2-.2.2a2.16 2.16 0 0 0-.27 0l.1.1a.2.2 0 0 1-.1 0 .4.4 0 0 0-.5 0 .24.24 0 0 0-.2.3l-.3 1.3a.74.74 0 0 1-.1.2l-.1.1a.72.72 0 0 0 .2 0c.1 0 .1 0 .1.1a.38.38 0 0 0 0 .1v-.2c.1 0 0 .12.1.2h.2l-.1-.1a.34.34 0 0 1 .4.1.27.27 0 0 1 .2.2.66.66 0 0 0 .1.2.65.65 0 0 1 .1.23.9.9 0 0 0 .2.6.56.56 0 0 1 0 .7.94.94 0 0 0 0 .4v.3l-.15.6a.12.12 0 0 0 0 .1.1.1 0 0 1-.1.2.4.4 0 0 1-.25 0 .13.13 0 0 0-.2 0l.1.1a.37.37 0 0 0-.1.4.2.2 0 0 1 0 .1.76.76 0 0 1-.1.16.1.1 0 0 0 0 .2l.3.2a2 2 0 0 1 .33.63.16.16 0 0 1-.1.1l-.2.2s-.2.1-.3 0a.88.88 0 0 1 0-.2l-.1-.2a.27.27 0 0 1 0-.2c.1-.2 0-.2-.1-.2a1.32 1.32 0 0 0-.2 0c0-.1-.1-.3-.1-.4a.17.17 0 0 0-.1-.1.3.3 0 0 0-.4.1.58.58 0 0 1-.1.2 2.14 2.14 0 0 0 0-.25 1.8 1.8 0 0 0-.1-.27 2.22 2.22 0 0 0-.2.2.6.6 0 0 0-.1.2.2.2 0 0 0 0 .1c0 .1 0 .1-.1.1s-.1 0-.1.1a.72.72 0 0 0 .38.3.77.77 0 0 0 .3-.1h.4a.18.18 0 0 1 .1 0l-.3.3a.24.24 0 0 0 0 .4l.2.6.1.16-.2.1a1.6 1.6 0 0 1 .2.1c.1.06.1.1 0 .2a.36.36 0 0 0-.3.2l.4-.1a.12.12 0 0 1 .14.1.32.32 0 0 1-.1.4.46.46 0 0 0-.1.4.54.54 0 0 1-.2.5.3.3 0 0 0 0 .13l-.2.2a.63.63 0 0 1-.1.1l-.9.42a.2.2 0 0 1-.1.3v-.2a.46.46 0 0 0 0-.2.54.54 0 0 0-.3.1 2.26 2.26 0 0 0-.3.4.18.18 0 0 0 0 .2 1.67 1.67 0 0 0 .5.52.7.7 0 0 1 .3.5 1.06 1.06 0 0 1 0 .8.24.24 0 0 1-.1.1.55.55 0 0 0-.35.2.5.5 0 0 0-.1.1l-.2.15v-.2a.4.4 0 0 0-.2-.3 1.07 1.07 0 0 1-.2-.2.25.25 0 0 0-.1-.1.35.35 0 0 1-.3-.2c0-.1-.16-.1-.2 0s0 .1 0 .1a2.6 2.6 0 0 1-.1.5.23.23 0 0 0 .1.3c.07.1.17.2.1.3a.15.15 0 0 0 0 .1l.37.4a.8.8 0 0 1 .2.6 1.28 1.28 0 0 0 .1.3zm3.22 4.14l.06.32v-.3h.2V455h.1l.1-.23v.1l.1-.16a.63.63 0 0 1 .1-.1.3.3 0 0 1 .12 0 .5.5 0 0 1 .08.4.53.53 0 0 0 0 .2l.12-.1.22.1c-.13-.2-.12-.3.12-.4a.26.26 0 0 1 .24-.3.6.6 0 0 0 .26 0l-.2-.1c.14 0 .22 0 .3.1a.63.63 0 0 0 .54.2.2.2 0 0 1 .16.1.3.3 0 0 1-.08.2.65.65 0 0 0-.26.5.13.13 0 0 0 0 .1 1.64 1.64 0 0 1 .47.5.2.2 0 0 0 .4 0 3.76 3.76 0 0 0 .3-.6.46.46 0 0 0 0-.4.45.45 0 0 0 .2-.3.3.3 0 0 1 .1-.1c.2.1.2.2.2.9h.2a.15.15 0 0 1 .1.3.47.47 0 0 0 0 .5.25.25 0 0 1 0 .2.42.42 0 0 0 .2.5.66.66 0 0 1 .2.6v.2l.1-.1.2.2-.1.2a2.86 2.86 0 0 0 .2.5 1 1 0 0 1 0 .6 1.77 1.77 0 0 1-.3.8.94.94 0 0 1-.4.6l-.3.5-.5.7a.15.15 0 0 1-.1 0 .45.45 0 0 0-.3.1 1.7 1.7 0 0 1-.3.2l-.1-.3a.37.37 0 0 1-.5 0h-.1c-.2 0-.2-.1-.3-.3.2-.1 0-.3 0-.4a.38.38 0 0 0-.1-.2l.1-.2a.45.45 0 0 1-.3.1l.5-.6a4.56 4.56 0 0 0-.7.5v-.2a.17.17 0 0 0 0-.2.18.18 0 0 1 0-.2.2.2 0 0 0-.1-.2.7.7 0 0 0-.7-.1 6.87 6.87 0 0 1-.8.1.3.3 0 0 0-.3.2.17.17 0 0 1-.2.1 3 3 0 0 0-.5 0 .66.66 0 0 0-.2.1.66.66 0 0 1-.7-.3.52.52 0 0 0 .3-.5v-.8l-.1-.7.2.2a1.35 1.35 0 0 1 .2-1.1v.1l.6-.2a1.07 1.07 0 0 1 .6-.2 1.55 1.55 0 0 0 .5-.3 1 1 0 0 0 .1-.3.63.63 0 0 1 .1-.1zm3.34-1.76a3 3 0 0 0 0-.55.5.5 0 0 0-.24-.23l-.5-.28V452s-.1.1-.1.2a.25.25 0 0 1-.07.14.34.34 0 0 1-.2 0c0-.24 0-.24-.2-.38l.4-.12a1.07 1.07 0 0 0-.3 0c-.2 0-.2-.1-.2-.16a.18.18 0 0 1 0-.15.32.32 0 0 1 .4 0 .14.14 0 0 1 0 .24.08.08 0 0 0 0 .07l.2.34.2-.27h.1l.1-.2a4.42 4.42 0 0 0 .4.3 4.55 4.55 0 0 0 .9.5.26.26 0 0 1 .1.2.5.5 0 0 0 .2.3.88.88 0 0 1 .2.2c-.3.2-.3.2-.1.4l.3.5a1.38 1.38 0 0 0 .1.1.25.25 0 0 1 .1.2.14.14 0 0 1-.1.1l-.3-.1h-.1a.4.4 0 0 1-.5-.4.43.43 0 0 0-.3-.3.14.14 0 0 0-.1 0l-.3.2a.4.4 0 0 1-.1.2.3.3 0 0 1-.5 0 .38.38 0 0 0-.3-.2zm-4.6-1.1V452l-.4-.06a.33.33 0 0 1-.1-.08c-.3.14-.3.14-.3-.2a1 1 0 0 0-.06-.2l-.14-.48h.43a.33.33 0 0 1 .23-.4.42.42 0 0 0 .25-.3.15.15 0 0 1 .1-.07.52.52 0 0 0 .3-.3 1.38 1.38 0 0 1 .2-.2 2.14 2.14 0 0 0 .2.3 1.62 1.62 0 0 0 .2.2l.2.2-.1.2.1.1h-.1a.47.47 0 0 0 0 .5 1.56 1.56 0 0 1 .2.4h-.2a1.18 1.18 0 0 1-.2.4.7.7 0 0 1-.2.5 1 1 0 0 1-.2.3z"/>
        <path d="M332.43 440.73l-.6.1c-.2 0-.4.12-.62.18a.6.6 0 0 1 .5-.3h-.3a.6.6 0 0 1 .1-.1.3.3 0 0 1 .1 0c-.2-.1-.2-.2 0-.2a.15.15 0 0 0 .1-.2.8.8 0 0 1 0-.2h-.2v-.3h-.1v-.1l-.1-.1.1-.2a.3.3 0 0 1 .3-.1.12.12 0 0 1 .1.1.16.16 0 0 1 0 .1l-.1.2h.1a.15.15 0 0 1 .3 0 .17.17 0 0 1 0 .3 1 1 0 0 1-.1.2l.2.2.1.2a.38.38 0 0 1 .2.4h.1a.27.27 0 0 1 .1 0 .2.2 0 0 1 0 .2c-.1.1-.1.1 0 .2zm23.9 2.27v-.18a1.1 1.1 0 0 0-.17.08l-.35.25a.13.13 0 0 1-.1 0 .15.15 0 0 1 0-.13 2.1 2.1 0 0 1 .1-.23.23.23 0 0 1 .3-.2c.3 0 .3 0 .3-.3l.1-.4v.1a1.17 1.17 0 0 0 .2-.2.2.2 0 0 0 .1-.2 2.53 2.53 0 0 0 0-.5.16.16 0 0 1 .1-.3.32.32 0 0 0 .1-.1 3.4 3.4 0 0 1 .3.4.58.58 0 0 1 0 .2.48.48 0 0 0 0 .1c0 .2.1.4.2.7a.12.12 0 0 1 0 .1l-.4.1a.22.22 0 0 0-.1.1c0 .1-.1.2-.1.3l-.2-.2zm5.8 19.62l.1.22.18-.1a.66.66 0 0 1-.2.45 1.67 1.67 0 0 0-.3.2.27.27 0 0 0 0 .1.3.3 0 0 1 0 .1.15.15 0 0 1-.1 0 .18.18 0 0 0-.2.1 1.4 1.4 0 0 0-.3.3.45.45 0 0 1-.5 0 .14.14 0 0 0-.1 0c-.1 0-.1-.1-.1-.2a8.3 8.3 0 0 0 1.8-1.3z"/>
        <path d="M363 460.87l.17.2a.15.15 0 0 1 0 .24.14.14 0 0 0 0 .3l.1-.2v.3c0 .3 0 .3.27.3.07.2.07.3-.1.3a.18.18 0 0 0-.12.1.12.12 0 0 1-.17.1.13.13 0 0 0-.16.2.18.18 0 0 1-.2.2.28.28 0 0 0-.2.2l-.1.2c-.1-.1-.2-.2 0-.3a.24.24 0 0 0 0-.3.15.15 0 0 1 0-.2l.3-.2a.26.26 0 0 0 0-.1 2 2 0 0 0 0-.8s.1 0 .1-.1zm-23.34-26.92l-.15-.1.2-.18.1-.18-.1-.2a.3.3 0 0 0 .3-.2.84.84 0 0 1 .5-.4 1 1 0 0 0 .6-.3.43.43 0 0 1 .3-.1.16.16 0 0 1 .1.1.2.2 0 0 1-.1.2 2.76 2.76 0 0 0-.3.1.38.38 0 0 0-.1.1l-.1.1a.8.8 0 0 0-.2.1.46.46 0 0 1-.3.2l.1.1c-.1.1-.2.1-.1.2a.32.32 0 0 1-.1 0 1.1 1.1 0 0 1-.2 0zm15.5 18.58v-.62a.43.43 0 0 0-.14-.1l-.1.9h-.2a.8.8 0 0 0 .1-.2.22.22 0 0 0 0-.2.16.16 0 0 1-.06-.2l.2-.7a.23.23 0 0 1 .04-.1 1.05 1.05 0 0 1 .14-.1.14.14 0 0 1 .12 0 .53.53 0 0 0 .66 0 .17.17 0 0 1 .1 0 .44.44 0 0 1-.52.3 1.1 1.1 0 0 0-.4 0 .12.12 0 0 0-.07.2c0 .1 0 .2.18.1a.5.5 0 0 0 .3-.1.18.18 0 0 1 .1.1.1.1 0 0 1 0 .1l-.2.1c0 .2.1.3.2.5a.24.24 0 0 0 .1.1c.1.1.1.2 0 .3s-.2.1-.4.1zM334 432.93l-.23-.04c-.18 0-.24-.1-.18-.3s0-.1 0-.2a.35.35 0 0 1 .4.1.07.07 0 0 0 0-.1 1.1 1.1 0 0 0 0-.2.17.17 0 0 1 .2 0 .5.5 0 0 0 .3.1.17.17 0 0 1 .2.1 1.37 1.37 0 0 0 .2.1h-.4a.2.2 0 0 0-.1 0l-.3.4-.2-.1.1-.3-.2.1c0-.1 0-.3.2-.3a.07.07 0 0 0 0-.1.25.25 0 0 0-.2 0c-.1 0-.2 0-.1.1zm22.3 5.7l-.23-.16a1.17 1.17 0 0 0 .58 1c-.1 0-.27-.2-.3.1-.06-.14-.1-.27-.17-.4s-.18-.37-.3-.55a.5.5 0 0 1-.1-.43.13.13 0 0 0-.1-.2.27.27 0 0 1-.2-.3.2.2 0 0 0-.07-.2.2.2 0 0 1 0-.3c-.1-.2-.1-.2 0-.3a2 2 0 0 1 .3.2 1.33 1.33 0 0 1 .1.2.3.3 0 0 0 .1.1.92.92 0 0 1 .3.5.67.67 0 0 0 .2.2l.2.1zm.97 1.62l-.22.14-.18.1.13.1.05.1a.54.54 0 0 1-.2-.1.3.3 0 0 0-.33 0 .1.1 0 0 0-.07 0 .1.1 0 0 0 .06.1h.2l.2.1h-.2l-.1-.2a2.36 2.36 0 0 0-.2-.2l.3-.3v-.3a.14.14 0 0 0 0-.1c-.1-.1 0-.2 0-.3a.53.53 0 0 0 .7.2zm-5.64-10.45c-.12.1-.25.07-.45-.1a.4.4 0 0 0 0 .15c.08.23.07.26-.17.3l.1.15a.3.3 0 0 1-.3 0l-.1-.06c-.2 0-.3-.2-.2-.35a.48.48 0 0 1 .4-.1.7.7 0 0 1 .3.1l-.1-.3h.1a1.2 1.2 0 0 0 .3 0 .23.23 0 0 1 .4.1zm-20.26 10.14h-.2l.06.26c0 .17 0 .23-.18.24a1.5 1.5 0 0 0-.15.05h-.3a.6.6 0 0 1-.14 0 .82.82 0 0 1 .07-.2c0-.1.1-.2.17-.2h-.17v-.2h.08c.2 0 .2 0 .2-.1a.26.26 0 0 1 .3-.1.67.67 0 0 1 .2.1zm26.33 21.93a1.2 1.2 0 0 1-.05.3.94.94 0 0 1-.2.18 1.22 1.22 0 0 1 0 .2.2.2 0 0 1-.07.07v-.08l-.23.14a.72.72 0 0 1-.12-.13.62.62 0 0 1-.06-.2.14.14 0 0 1 .07-.14.52.52 0 0 0 0-.3.87.87 0 0 0 0-.1 2.1 2.1 0 0 0 .38.2.67.67 0 0 1 .3 0zm-2.25-13.63l-.22-.2v.13c-.07-.1-.12-.24-.26 0l-.34-.55a.32.32 0 0 0 .08-.1.7.7 0 0 1 .1-.5h.2a.22.22 0 0 1 .1 0 1 1 0 0 1 0 .45.37.37 0 0 0 0 .36.25.25 0 0 0 .2.1.27.27 0 0 1 .3.27z"/>
        <path d="M334.8 432.46l.2-.1-.27.08c-.1 0-.17.1-.18-.07a.34.34 0 0 0-.1-.1h.17l.13-.23a.26.26 0 0 0 .35.22l-.1-.16c.18 0 .36 0 .53.1a.1.1 0 0 1 0 .2.4.4 0 0 1-.18.1 3.67 3.67 0 0 1-.46 0zm20.8 17l-.34.13.2-.3a.35.35 0 0 0 .4-.3.25.25 0 0 1 .2.3.78.78 0 0 0 0 .2l-.2.1.1.2a.7.7 0 0 1-.26 0 .33.33 0 0 1-.08-.2 1.3 1.3 0 0 1 0-.3zm-15.5-14.66h-.42l.07-.18h-.35a.18.18 0 0 1 0-.27.37.37 0 0 0 .07-.2.13.13 0 0 1 .15-.15h.27a.54.54 0 0 0 .2.74zm4.7-4.17a.83.83 0 0 1-.5 0c0 .07-.1.17-.2.06a.24.24 0 0 0-.1 0l.2-.2c0-.2.13-.2.46-.2l-.07-.2a.43.43 0 0 1 .2 0 .42.42 0 0 1 0 .2 1.05 1.05 0 0 1-.1.1zm11.1 13.27c-.16 0-.26-.04-.25-.2a.22.22 0 0 0-.24-.27.15.15 0 0 1 .2-.2.27.27 0 0 1 .3.22v.46zm-10.72-13.53a.22.22 0 0 1 .13 0c.1.1.3 0 .3.2a.17.17 0 0 1-.1.1.26.26 0 0 0-.2.24v-.5zm7.38-.87a.64.64 0 0 1-.64.26.2.2 0 0 1-.18-.23l.14.05a.2.2 0 0 1 .07-.06.46.46 0 0 0 .35-.07.55.55 0 0 1 .26.05zm1.92 16.65a4 4 0 0 1-.18-.4c-.08-.2-.07-.2.14-.33a.58.58 0 0 1 .04.73zm-10.76-15.7c0-.1 0-.17.13-.16a.13.13 0 0 0 .15-.1.38.38 0 0 1 .25-.1.5.5 0 0 1 .17 0 1 1 0 0 1-.7.2zm8.18.17l-.58.12c.12-.38.25-.4.58-.12zm9 21.88c0 .22 0 .3-.2.35a.25.25 0 0 1-.34-.08c.13-.1.35.06.42-.17l-.14-.17zm-4.57-1.5l.3.16-.2.12v.17l-.25-.35.12-.3zm-1.2-2.5l.2.05v.13a.44.44 0 0 1 .1.47.1.1 0 0 1-.1 0 .27.27 0 0 1 0-.13 1.54 1.54 0 0 1 .08-.24h-.1zm-19.78-15.44l-.44.1a.56.56 0 0 1 .2-.2.32.32 0 0 1 .4.08v.06zm20.98 9.94a.3.3 0 0 1-.22.26.27.27 0 0 0 0 .12c-.1-.1-.1-.2 0-.28a1.85 1.85 0 0 1 .3-.1zm-17.83-11.52l.1.16c-.24 0 0 .22-.08.27h-.3zm17.82 20.46a.34.34 0 0 1 .1-.1.4.4 0 0 1 .54.27.6.6 0 0 0-.6-.1zm-16.17-20.86a.15.15 0 0 1 .16.16.34.34 0 0 1-.1.15.1.1 0 0 1-.1 0 .14.14 0 0 1 0-.2 1.54 1.54 0 0 1 .1-.2zm-.53.5a.26.26 0 0 1 0-.15.28.28 0 0 1 .34-.07c0 .23-.2.13-.3.22zm14.65 17.67l.27-.3a.2.2 0 0 0 .1-.25.38.38 0 0 1 0-.15c.1.3.1.3-.1.47a2.94 2.94 0 0 0-.25.26zM339 431.47c.13-.17.13-.17.08-.24h.33l-.2.18.2.1h-.4zm16.9 17.18c-.16 0-.2 0-.23-.1a.8.8 0 0 0-.1-.18.34.34 0 0 1 .32.28zm-15.5-13.95l.37.22c-.36.08-.4.08-.37-.22zm9.7-3.07a1 1 0 0 1-.2.1.27.27 0 0 1-.13-.08.32.32 0 0 1 .1-.07 1.2 1.2 0 0 1 .23 0v.06zm-11.17 3.9c0-.12 0-.2.14-.2s.16 0 .16.1zm-.58-3.93l-.2.26c-.1-.12 0-.23.2-.27zm-2.35 1l-.26.1v-.06l.25-.12zm3.47-.92h-.08l-.1-.07h.2zm11.73-1.1v-.23c.13.1.13.1 0 .22h-.07zm-3.57 1.07l-.2.1a.3.3 0 0 1 .06-.1.74.74 0 0 1 .1 0v.08z"/>
      </g>
      <text fill="#231f20" transform="translate(251.09 265.11)" font-size="7.5" font-family="Roboto Slab">
        Both a<tspan x="22.72" y="0">r</tspan><tspan x="25.75" y="0">e equally li</tspan><tspan x="64.26" y="0">k</tspan><tspan x="68.75" y="0">ely </tspan><tspan x="81.26" y="0">t</tspan><tspan x="83.94" y="0">o h</tspan><tspan x="94.85" y="0">a</tspan><tspan x="98.92" y="0">v</tspan><tspan x="103.06" y="0">e a four </tspan><tspan x="131.35" y="0">y</tspan><tspan x="135.56" y="0">ear c</tspan><tspan x="152.73" y="0">o</tspan><tspan x="156.86" y="0">llege deg</tspan><tspan x="188.54" y="0">r</tspan><tspan x="191.57" y="0">ee</tspan><tspan x="34.79" y="9">60% a</tspan><tspan x="54.59" y="9">r</tspan><tspan x="57.63" y="9">e married or in a </tspan><tspan x="118.13" y="9">l</tspan><tspan x="120.42" y="9">o</tspan><tspan x="124.63" y="9">n</tspan><tspan x="129.42" y="9">g term </tspan><tspan x="154.35" y="9">r</tspan><tspan x="157.39" y="9">elationship.</tspan>
      </text>
      <path fill="none" stroke="#231f20" stroke-miterlimit="10" d="M266.5 311H198v242.48M424.25 311h-102.6v226.17"/>
      <rect width="214.19" height="24" x="237.47" y="229.67" fill="#231f20" rx="10.09" ry="10.09"/>
      <text fill="#fff" transform="translate(247.53 247.26)" font-size="14" font-family="Roboto Slab">
        CORE DEMOGRAPHICS
      </text>
    </g>
  </g>
</svg>
