<svg id="Layer_1" data-name="Layer 1" xmlns="http://www.w3.org/2000/svg" viewBox="0 0 612 792"><title>dog-cat</title><g id="layer4"><path d="M219.23,505.21c3.33,10.86,6.2,32.77,6.13,46.63,0,6.58.17,15,.46,18.61a65.6,65.6,0,0,1-.86,15.68c-1.8,11.71-2.07,12.75-3.31,12.75-0.66,0-1.23,1.85-1.55,5.07a34.93,34.93,0,0,1-1.31,7.67c-1.64,5.5-1.73,4.76-.46,8.77,1.32,4.22,1.33,3,6.57,4.5,6.84,2,10.13-.15,14.17-2.07,1.66-.78,4-4.48,4.47-7.7v0c0-.14,0-0.28,0-0.42s0-.21,0-0.31a0,0,0,0,1,0,0,16.7,16.7,0,0,1,3.67-9.06c2.35-2.83,5.2-5.26,7.38-8.2a23.34,23.34,0,0,0,3.91-7.7c1.12-4.27,1.45-8.75,2.21-13.12a75.8,75.8,0,0,1,9-24.83,62.27,62.27,0,0,0,4.3-8.36c3.11-8,8-14.83,13.62-21.26,3.18-3.66,5.75-7.84,8.65-11.74,2.35-3.15,4.8-6.23,7.19-9.36a0.92,0.92,0,0,0,.15-0.5,52.64,52.64,0,0,1-5.66-4.56,4.57,4.57,0,0,0-4.88-1.45c-4.2.88-8.46,1.47-12.69,2.18l-0.14-.79,15.7-2.82c0.34-2.07-.89-2.17-2.23-2.06-3.45.28-6.9,0.62-10.35,0.87-1.06.08-2.14,0-3.21-.07v-0.68L296,489.57l0.09-.72-16.48-5.06c0.09-.25.16-0.5,0.24-0.75l16.8,4.87,0.8-.47c-1.26-3-2.5-6-3.78-9-2-4.74-3.66-9-1.12-14.63,2.77-6.17,4.36-13.32-.39-19.87l2.18,0-2.51-3.74,2.75,0.66c-1.51-8.9-8.77-15-10.75-24.23a35.71,35.71,0,0,1,3.21,1.71c3.76,2.65,7.33,5.61,11.26,8,5.15,3.11,10.28,6.58,16.5,7.22a69.12,69.12,0,0,0,11,.27,8.4,8.4,0,0,0,6.48-3c2.93-3.61,6.39-6.79,9.78-10.32a24,24,0,0,1,2.35,2.44,74.42,74.42,0,0,1,5.8,8.69c2.9,5.75,5.94,11.59,5.71,18.3a20.48,20.48,0,0,0,4.38,14,13.4,13.4,0,0,1,2.59,4.86c2.61,10.35,5.81,20.65,7.37,31.17,2.57,17.26,1.57,34.39-5.56,50.76-0.92,2.11-.77,4.71-1,7.08-0.26,2.67-.11,5.41-0.65,8-1.47,7.13-3.37,14.17-4.8,21.31-2,10.26-4,20.53-5.8,30.83h0c-0.47,4.05,9.18,7.21,16.54,8.85,7,1.55,12.23.72,14.42-1.91,0.68-.83,2.54-1.23,5.58-1.23,0,0,4.54.45,4-4.75-1.32-10.52-1.47-19.82-1.71-23.28-1.53-15.64,5.19-32.28,8.39-44.18s8.58-46.53-1.74-75.78C367.52,398.26,365.55,374,365.55,374c-1.94-12-6.31-27.65-10-41.27-6.31-23.38-6.68-25.24-6.72-33.42,0-8.46,0-8.88,3.64-17.32,3-7.14,4.6-9.64,9-14.31,5.24-5.58,11.62-8.91,14.92-9.65,3.07-.68,11.23-7.58,12.34-9.28,1.21-1.89,8.12-13,13.46-19.19,6-7,7.52-12.88,5.44-21.87a34.34,34.34,0,0,1-.75-7.26,8.32,8.32,0,0,0-1.64-5.75c-1.52-1.93-1.58-2.33-.49-3.12s1.1-1.37,0-5c-2-6.61-2.77-7.25-8.35-6.7l-17.58,1.71c-7,.69-14.09,1.47-15.68,1.73-3.77.64-5.44-.42-4.24-2.68,1-1.9.21-2.89-3.19-3.91-3-.9-4.13-2-4.13-4.19,0-1.82-.22-1.9-4-1.45s-4.24.26-7.22-2.4c-5.52-4.95-7.52-5.59-17.4-5.55-11.67,0-20.93,2.06-30.84,6.72C276,177.48,265,186.34,256.94,198.23a43.21,43.21,0,0,1-7.79,8.38c-9.07,6.95-18.45,15.63-19,17.6-0.32,1.12-1.18,8.16-1.92,15.65-1.34,13.61-3.11,23.16-6.07,32.75-1.82,5.9-1.19,7.48,2.28,5.66,4-2.12,7.56-6.66,9.07-11.67l1.46-4.86,4.48,0c6.92,0,7.37.4,7.37,5.91,0,4.82-4.38,20.46-10.4,37.13-2.73,7.56-11.11,24.89-14.31,29.56C201.48,365.16,210.88,459,210.88,459,213.28,476.94,217.18,498.5,219.23,505.21Z" fill="#231f20"/></g></svg>