<!-- Personality -->

<svg xmlns="http://www.w3.org/2000/svg" viewBox="0 0 612 792">
  <g style="isolation:isolate">
    <g id="Layer_1" data-name="Layer 1">
      <path fill="#00a651" d="M443.9 286.72V485.8c0 14.75-12.87 26.7-28.74 26.7H154.7V260h261.84c15.23.7 27.35 12.4 27.35 26.72z"/>
      <text fill="#010101" transform="translate(202.2 336.92)" font-size="10" font-family="Roboto Slab">
        DOG PEOPLE
      </text>
      <text fill="#010101" transform="translate(325.7 336.92)" font-size="10" font-family="Roboto Slab">
        C<tspan x="6.45" y="0">A</tspan><tspan x="12.9" y="0">T PEOPLE</tspan>
      </text>
      <path fill="#231f20" d="M358.93 448.1a12.67 12.67 0 0 1-12.67 12.66V448.1L334 444.85a12.67 12.67 0 0 1 24.93 3.23z"/>
      <path fill="#fff200" d="M346.26 448.1v12.66A12.68 12.68 0 0 1 334 444.92v-.06z"/>
      <text fill="#010101" transform="translate(367.6 442.09)" font-size="7" font-family="Roboto Slab">
        27% <tspan x="14.45" y="0">m</tspan><tspan x="21.03" y="0">o</tspan><tspan x="24.96" y="0">r</tspan><tspan x="27.79" y="0">e li</tspan><tspan x="37.8" y="0">k</tspan><tspan x="41.98" y="0">ely </tspan><tspan x="53.66" y="0">t</tspan><tspan x="56.16" y="0">o </tspan><tspan x="0" y="8.4">p</tspan><tspan x="4.24" y="8.4">r</tspan><tspan x="7.07" y="8.4">e</tspan><tspan x="10.83" y="8.4">f</tspan><tspan x="13.24" y="8.4">er i</tspan><tspan x="23.94" y="8.4">n</tspan><tspan x="28.41" y="8.4">dividual </tspan><tspan x="0" y="16.8">competition </tspan><tspan x="42.22" y="16.8">o</tspan><tspan x="46.09" y="16.8">v</tspan><tspan x="49.95" y="16.8">er </tspan><tspan x="0" y="25.2">team competition</tspan>
      </text>
      <path fill="#fff200" d="M222.84 435.42v25.33a12.66 12.66 0 0 1-12.63-11.84v-.8a12.7 12.7 0 0 1 .4-3.1 12.5 12.5 0 0 1 1.2-2.8 12.65 12.65 0 0 1 11.1-6.6z"/>
      <path fill="#231f20" d="M235.5 448.08a12.67 12.67 0 0 1-12.66 12.67v-25.33a12.66 12.66 0 0 1 12.67 12.66z"/>
      <text fill="#010101" transform="translate(244.17 442.09)" font-size="7" font-family="Roboto Slab">
        S<tspan x="4.26" y="0">p</tspan><tspan x="8.47" y="0">lit </tspan><tspan x="17.27" y="0">ev</tspan><tspan x="24.86" y="0">enly on </tspan><tspan x="0" y="8.4">w</tspan><tspan x="5.79" y="8.4">h</tspan><tspan x="10.27" y="8.4">et</tspan><tspan x="16.6" y="8.4">h</tspan><tspan x="21.08" y="8.4">er t</tspan><tspan x="32.04" y="8.4">h</tspan><tspan x="36.53" y="8.4">e</tspan><tspan x="40.25" y="8.4">y p</tspan><tspan x="50.2" y="8.4">r</tspan><tspan x="53.03" y="8.4">e</tspan><tspan x="56.79" y="8.4">f</tspan><tspan x="59.2" y="8.4">er </tspan><tspan x="0" y="16.8">i</tspan><tspan x="2.3" y="16.8">n</tspan><tspan x="6.77" y="16.8">dividual or team </tspan><tspan x="0" y="25.2">competition</tspan>
      </text>
      <path fill="#231f20" d="M236 413.7a12.67 12.67 0 0 1-12.67 12.66V413.7l-11.06 6.15A12.66 12.66 0 1 1 236 413.7z"/>
      <path fill="#fff200" d="M223.33 413.7v12.66a12.65 12.65 0 0 1-11.06-6.5z"/>
      <text fill="#010101" transform="translate(244.67 407.79)" font-size="7" font-family="Roboto Slab">
        17% <tspan x="13.47" y="0">m</tspan><tspan x="20.05" y="0">o</tspan><tspan x="23.98" y="0">r</tspan><tspan x="26.81" y="0">e li</tspan><tspan x="36.81" y="0">k</tspan><tspan x="41" y="0">ely </tspan><tspan x="52.68" y="0">t</tspan><tspan x="55.18" y="0">o </tspan><tspan x="0" y="8.4">h</tspan><tspan x="4.52" y="8.4">a</tspan><tspan x="8.32" y="8.4">v</tspan><tspan x="12.19" y="8.4">e com</tspan><tspan x="32" y="8.4">p</tspan><tspan x="36.21" y="8.4">leted a </tspan><tspan x="0" y="16.8">graduate deg</tspan><tspan x="43.01" y="16.8">r</tspan><tspan x="45.84" y="16.8">ee</tspan>
      </text>
      <path fill="#231f20" d="M358.93 413.7a12.67 12.67 0 0 1-12.67 12.66V413.7l-11.06 6.15a12.66 12.66 0 1 1 23.73-6.16z"/>
      <path fill="#fff200" d="M346.26 413.7v12.66a12.65 12.65 0 0 1-11.06-6.5z"/>
      <text fill="#010101" transform="translate(367.6 407.79)" font-size="7" font-family="Roboto Slab">
        14% <tspan x="13.67" y="0">m</tspan><tspan x="20.25" y="0">o</tspan><tspan x="24.18" y="0">r</tspan><tspan x="27.01" y="0">e li</tspan><tspan x="37.02" y="0">k</tspan><tspan x="41.2" y="0">ely </tspan><tspan x="52.88" y="0">t</tspan><tspan x="55.38" y="0">o </tspan><tspan x="0" y="8.4">cli</tspan><tspan x="8.28" y="8.4">n</tspan><tspan x="12.75" y="8.4">g </tspan><tspan x="18.45" y="8.4">t</tspan><tspan x="20.95" y="8.4">o frie</tspan><tspan x="38.06" y="8.4">n</tspan><tspan x="42.53" y="8.4">ds at </tspan><tspan x="0" y="16.8">a pa</tspan><tspan x="13.69" y="16.8">r</tspan><tspan x="16.69" y="16.8">ty</tspan>
      </text>
      <text fill="#010101" transform="translate(247.67 368.51)" font-size="7" font-family="Roboto Slab">
        15% <tspan x="13.31" y="0">m</tspan><tspan x="19.89" y="0">o</tspan><tspan x="23.82" y="0">r</tspan><tspan x="26.65" y="0">e li</tspan><tspan x="36.65" y="0">k</tspan><tspan x="40.84" y="0">ely </tspan><tspan x="52.52" y="0">t</tspan><tspan x="55.02" y="0">o </tspan><tspan x="0" y="8.4">be ext</tspan><tspan x="19.96" y="8.4">r</tspan><tspan x="22.78" y="8.4">o</tspan><tspan x="26.66" y="8.4">v</tspan><tspan x="30.52" y="8.4">e</tspan><tspan x="34.29" y="8.4">r</tspan><tspan x="37.29" y="8.4">ts</tspan>
      </text>
      <text fill="#010101" transform="translate(370.6 368.51)" font-size="7" font-family="Roboto Slab">
        11% <tspan x="12.5" y="0">m</tspan><tspan x="19.08" y="0">o</tspan><tspan x="23.01" y="0">r</tspan><tspan x="25.84" y="0">e li</tspan><tspan x="35.84" y="0">k</tspan><tspan x="40.03" y="0">ely </tspan><tspan x="51.71" y="0">t</tspan><tspan x="54.21" y="0">o </tspan><tspan x="0" y="8.4">be int</tspan><tspan x="18.93" y="8.4">r</tspan><tspan x="21.75" y="8.4">o</tspan><tspan x="25.63" y="8.4">v</tspan><tspan x="29.49" y="8.4">e</tspan><tspan x="33.25" y="8.4">r</tspan><tspan x="36.26" y="8.4">ts</tspan>
      </text>
      <path fill="#fff200" d="M223.33 481.57v12.67a12.66 12.66 0 0 1-12.63-11.84v-.83a12.7 12.7 0 0 1 .4-3.17v-.06a12.58 12.58 0 0 1 2.32-4.62z"/>
      <path fill="#231f20" d="M236 481.57a12.67 12.67 0 0 1-12.67 12.67v-12.67l-9.92-7.85a12.66 12.66 0 0 1 22.6 7.85z"/>
      <text fill="#010101" transform="translate(244.67 481.57)" font-size="7" font-family="Roboto Slab">
        36% <tspan x="14.42" y="0">m</tspan><tspan x="21" y="0">o</tspan><tspan x="24.93" y="0">r</tspan><tspan x="27.76" y="0">e li</tspan><tspan x="37.77" y="0">k</tspan><tspan x="41.95" y="0">ely </tspan><tspan x="53.63" y="0">t</tspan><tspan x="56.13" y="0">o </tspan><tspan x="0" y="8.4">be </tspan><tspan x="9.56" y="8.4">v</tspan><tspan x="13.42" y="8.4">e</tspan><tspan x="17.18" y="8.4">r</tspan><tspan x="20.14" y="8.4">y acti</tspan><tspan x="38.34" y="8.4">v</tspan><tspan x="42.21" y="8.4">e </tspan><tspan x="0" y="16.8">outdoors</tspan>
      </text>
      <path id="kd8E2i.tif" d="M224.2 354.5H223a.8.8 0 0 1-.17.05 11 11 0 0 0-3.9 1.1 8 8 0 0 0-3.68 3.3 13 13 0 0 0-1.27 3.86l-.26 1.8v1.3c0 .4.08.8.12 1.2a19.18 19.18 0 0 0 2.85 8.1 5.94 5.94 0 0 1 .8 2.7 9.75 9.75 0 0 1-1.1 5.7.44.44 0 0 0 0 .58 22.17 22.17 0 0 0 9 7.05c.6.26 1.3.5 1.9.74l.6-3.93a5.94 5.94 0 0 1 1.2-3 1.5 1.5 0 0 0 .3-1.2c0-.23 0-.44-.1-.66a1.2 1.2 0 0 1 .7-1.3 3.34 3.34 0 0 1 1.2-.3c.6 0 1.22.04 1.83.06a2.85 2.85 0 0 0 1.7-.4 1.13 1.13 0 0 0 .44-1.57l-.2-.32a.83.83 0 0 1 .3-1.2 5.52 5.52 0 0 0 .55-.32.9.9 0 0 0 .2-1.16c-.27-.22-.1-.3.03-.42a.7.7 0 0 0 .33-1l-.07-.2a.92.92 0 0 1 .8-1.24h.4a.87.87 0 0 0 .87-.56v-.3l-.7-1.1c-.57-.83-1.1-1.7-1.7-2.5a1.5 1.5 0 0 1-.17-2 1.33 1.33 0 0 0 .14-1.1c-.37-1.43-.7-2.9-1.13-4.3a7.47 7.47 0 0 0-2.36-3.76 15.55 15.55 0 0 0-6.86-3.1c-.55-.1-1.15-.16-1.74-.24z"/>
      <path fill="none" stroke="#000" stroke-miterlimit="10" d="M223.3 348.97l1.48-1.47 1.4 1.4m-1.43 3.5v-4.9m-10.87 4.8l.52-2.02 1.93.5m.54 3.74l-2.5-4.22m-5.87 10.38l-.97-1.83 1.75-.94m2.92 2.4l-4.68-1.4m24.62-8l2-.5.52 2m-3 2.3l2.46-4.2"/>
      <path id="kd8E2i.tif-2" d="M347.1 354.5h-1.25a.8.8 0 0 1-.17.05 11 11 0 0 0-3.9 1.1 8 8 0 0 0-3.68 3.3 13 13 0 0 0-1.27 3.86l-.26 1.8v1.3c0 .4.08.8.12 1.2a19.18 19.18 0 0 0 2.8 8.1 5.94 5.94 0 0 1 .8 2.7 9.75 9.75 0 0 1-1.1 5.7.44.44 0 0 0 0 .58 22.17 22.17 0 0 0 9 7.05c.6.26 1.3.5 1.9.74l.6-3.93a5.94 5.94 0 0 1 1.2-3 1.5 1.5 0 0 0 .3-1.2c0-.23 0-.44-.1-.66a1.2 1.2 0 0 1 .72-1.3 3.34 3.34 0 0 1 1.2-.3c.6 0 1.2.04 1.8.06a2.85 2.85 0 0 0 1.67-.38 1.13 1.13 0 0 0 .4-1.54l-.2-.4a.83.83 0 0 1 .36-1.2 5.52 5.52 0 0 0 .54-.4.9.9 0 0 0 .2-1.16c-.2-.2-.1-.3.1-.4a.7.7 0 0 0 .34-1l-.1-.2a.92.92 0 0 1 .8-1.3h.4a.87.87 0 0 0 .85-.56v-.3l-.7-1.1c-.57-.8-1.1-1.7-1.7-2.47a1.5 1.5 0 0 1-.17-2 1.33 1.33 0 0 0 .2-1.14c-.4-1.4-.75-2.83-1.17-4.3a7.47 7.47 0 0 0-2.37-3.7 15.55 15.55 0 0 0-6.9-3.1c-.5-.1-1.1-.16-1.7-.24z" data-name="kd8E2i.tif"/>
      <path fill="none" stroke="#000" stroke-miterlimit="10" d="M349.08 350.94l-1.46 1.47-1.4-1.4m1.43-3.5v4.9m-7.4.2l-.5 2-1.94-.5m-.5-3.7l2.5 4.3m-5.6 4l1 1.9-1.7.98m-2.9-2.4l4.7 1.43m21.5-6.3l-2 .54-.5-1.93m3-2.3l-2.5 4.23"/>
      <text fill="#010101" transform="translate(334.99 490.92)" font-size="6" font-family="Roboto Slab">
        Less li<tspan x="18.21" y="0">k</tspan><tspan x="21.8" y="0">ely </tspan><tspan x="31.81" y="0">t</tspan><tspan x="33.95" y="0">o be acti</tspan><tspan x="57.7" y="0">v</tspan><tspan x="61.01" y="0">e joggers </tspan><tspan x="0" y="7.2">or bi</tspan><tspan x="12.79" y="7.2">k</tspan><tspan x="16.37" y="7.2">ers</tspan>
      </text>
      <text fill="#231f20" transform="translate(187.24 305.11)" font-size="7.5" font-family="Roboto Slab">
        Both consider t<tspan x="54.2" y="0">h</tspan><tspan x="59" y="0">emsel</tspan><tspan x="80.34" y="0">v</tspan><tspan x="84.47" y="0">es c</tspan><tspan x="98.24" y="0">l</tspan><tspan x="100.52" y="0">ose </tspan><tspan x="114.45" y="0">t</tspan><tspan x="117.13" y="0">o natu</tspan><tspan x="139.46" y="0">r</tspan><tspan x="142.49" y="0">e a</tspan><tspan x="152.52" y="0">n</tspan><tspan x="157.31" y="0">d a</tspan><tspan x="167.8" y="0">r</tspan><tspan x="170.83" y="0">e ge</tspan><tspan x="185.01" y="0">n</tspan><tspan x="189.8" y="0">erally optimists.</tspan>
      </text>
      <path fill="none" stroke="#231f20" stroke-miterlimit="10" d="M252.18 339.18h-51.96V512.5M375.1 339.18h-50.96V512.5"/>
      <rect width="139.52" height="24" x="294.28" y="269.67" fill="#231f20" rx="10.09" ry="10.09"/>
      <text fill="#fff" transform="translate(304.99 287.26)" font-size="14" font-family="Roboto Slab">
        PERSO<tspan x="45.7" y="0">N</tspan><tspan x="55.78" y="0">ALI</tspan><tspan x="78.76" y="0">T</tspan><tspan x="87.64" y="0">Y</tspan>
      </text>
    </g>
  </g>
</svg>
