<svg xmlns="http://www.w3.org/2000/svg" viewBox="0 0 612 792">
  <g style="isolation:isolate">
    <g id="Layer_1" data-name="Layer 1">
      <path fill="#008d4c" d="M447.66 311.48V466.4c0 16.24-11.45 29.4-25.56 29.4H150.2V282.08h271.9c14.1 0 25.56 13.16 25.56 29.4z"/>
      <text fill="#010101" transform="translate(198.96 359)" font-size="10" font-family="Roboto Slab">
        DOG PEOPLE
      </text>
      <text fill="#010101" transform="translate(322.46 359)" font-size="10" font-family="Roboto Slab">
        C<tspan x="6.45" y="0">A</tspan><tspan x="12.9" y="0">T PEOPLE</tspan>
      </text>
      <text fill="#010101" transform="translate(241.04 417.4)" font-size="7" font-family="Roboto Slab">
        Mo<tspan x="10.44" y="0">r</tspan><tspan x="13.27" y="0">e li</tspan><tspan x="23.28" y="0">k</tspan><tspan x="27.46" y="0">ely </tspan><tspan x="39.14" y="0">t</tspan><tspan x="41.64" y="0">o think</tspan><tspan x="0" y="8.4">z</tspan><tspan x="3.65" y="8.4">oos a</tspan><tspan x="20.67" y="8.4">r</tspan><tspan x="23.5" y="8.4">e a hap</tspan><tspan x="47.21" y="8.4">p</tspan><tspan x="51.41" y="8.4">y </tspan><tspan x="57.12" y="8.4">p</tspan><tspan x="61.33" y="8.4">lace</tspan>
      </text>
      <path fill="#231f20" d="M232.37 451.8a12.67 12.67 0 0 1-12.67 12.66V451.8l8.63-9.27a12.56 12.56 0 0 1 4.04 9.26z"/>
      <path fill="#fff200" d="M228.33 442.53l-8.63 9.26v12.64a12.66 12.66 0 0 1-12.63-11.84v-.82a12.7 12.7 0 0 1 .4-3.18v-.06a12.66 12.66 0 0 1 20.86-6.03z"/>
      <text fill="#010101" transform="translate(241.04 445.79)" font-size="7" font-family="Roboto Slab">
        67% <tspan x="14.5" y="0">m</tspan><tspan x="21.08" y="0">o</tspan><tspan x="25" y="0">r</tspan><tspan x="27.83" y="0">e li</tspan><tspan x="37.84" y="0">k</tspan><tspan x="42.03" y="0">ely </tspan><tspan x="53.71" y="0">t</tspan><tspan x="56.2" y="0">o </tspan><tspan x="0" y="8.4">call animal cont</tspan><tspan x="53.62" y="8.4">ro</tspan><tspan x="60.31" y="8.4">l if </tspan><tspan x="0" y="16.8">t</tspan><tspan x="2.56" y="16.8">h</tspan><tspan x="7.05" y="16.8">e</tspan><tspan x="10.77" y="16.8">y happen upon </tspan><tspan x="0" y="25.2">str</tspan><tspan x="9.03" y="25.2">a</tspan><tspan x="12.83" y="25.2">y kittens</tspan>
      </text>
      <path fill="#231f20" d="M232.37 383a12.67 12.67 0 0 1-12.67 12.67V383l-11.06 6.16a12.66 12.66 0 1 1 23.73-6.16z"/>
      <path fill="#fff200" d="M219.7 383v12.67a12.65 12.65 0 0 1-11.06-6.5z"/>
      <text fill="#010101" transform="translate(241.04 377.1)" font-size="7" font-family="Roboto Slab">
        11% <tspan x="12.5" y="0">m</tspan><tspan x="19.08" y="0">o</tspan><tspan x="23.01" y="0">r</tspan><tspan x="25.84" y="0">e li</tspan><tspan x="35.84" y="0">k</tspan><tspan x="40.03" y="0">ely </tspan><tspan x="51.71" y="0">t</tspan><tspan x="54.21" y="0">o </tspan><tspan x="0" y="8.4">suppo</tspan><tspan x="20.22" y="8.4">r</tspan><tspan x="23.23" y="8.4">t c</tspan><tspan x="31.31" y="8.4">l</tspan><tspan x="33.44" y="8.4">oni</tspan><tspan x="44.17" y="8.4">n</tspan><tspan x="48.64" y="8.4">g, but </tspan><tspan x="0" y="16.8">only for animals </tspan><tspan x="0" y="25.2">or pets</tspan>
      </text>
      <text fill="#010101" transform="translate(365.43 417.4)" font-size="7" font-family="Roboto Slab">
        21% <tspan x="13.48" y="0">m</tspan><tspan x="20.06" y="0">o</tspan><tspan x="23.99" y="0">r</tspan><tspan x="26.82" y="0">e li</tspan><tspan x="36.83" y="0">k</tspan><tspan x="41.01" y="0">ely </tspan><tspan x="52.69" y="0">t</tspan><tspan x="55.19" y="0">o </tspan><tspan x="0" y="8.4">r</tspan><tspan x="2.83" y="8.4">escue str</tspan><tspan x="32.72" y="8.4">a</tspan><tspan x="36.52" y="8.4">y kittens</tspan>
      </text>
      <path fill="#fff200" d="M344.1 451.8v12.66a12.66 12.66 0 0 1-12.64-11.84v-.83a12.7 12.7 0 0 1 .4-3.2v-.06a12.58 12.58 0 0 1 2.32-4.62z"/>
      <path fill="#231f20" d="M356.76 451.8a12.67 12.67 0 0 1-12.67 12.66V451.8l-9.95-7.86a12.66 12.66 0 0 1 22.6 7.85z"/>
      <text fill="#010101" transform="translate(365.43 451.79)" font-size="7" font-family="Roboto Slab">
        39% <tspan x="14.45" y="0">m</tspan><tspan x="21.03" y="0">o</tspan><tspan x="24.96" y="0">r</tspan><tspan x="27.79" y="0">e li</tspan><tspan x="37.8" y="0">k</tspan><tspan x="41.99" y="0">ely </tspan><tspan x="53.67" y="0">t</tspan><tspan x="56.16" y="0">o </tspan><tspan x="0" y="8.4">r</tspan><tspan x="2.83" y="8.4">ent t</tspan><tspan x="17.96" y="8.4">h</tspan><tspan x="22.45" y="8.4">eir </tspan><tspan x="33.15" y="8.4">h</tspan><tspan x="37.63" y="8.4">o</tspan><tspan x="41.56" y="8.4">m</tspan><tspan x="48.14" y="8.4">e</tspan>
      </text>
      <path fill="#231f20" d="M356.76 417.4a12.67 12.67 0 0 1-12.67 12.66V417.4l-12.45 2.45a12.44 12.44 0 0 1-.24-2.46 12.7 12.7 0 0 1 .4-3.2v-.06l.16-.52a12.66 12.66 0 0 1 24.78 3.75z"/>
      <path fill="#fff200" d="M344.1 417.4v12.66a12.67 12.67 0 0 1-12.43-10.2z"/>
      <path d="M228.22 417.6h-4.4v12.47h-8.22v-12.45h-4.4l.07-.1 5.36-7.12 3-4v-.06l.45.6 8 10.6z"/>
      <path fill="#231f20" d="M356.76 383a12.67 12.67 0 0 1-12.67 12.67V383l-11.1-6.06a12.66 12.66 0 0 1 23.74 6.06z"/>
      <path fill="#fff200" d="M344.1 383v12.67a12.66 12.66 0 0 1-12.64-11.84V383a12.7 12.7 0 0 1 .4-3.17v-.06a12.5 12.5 0 0 1 1.13-2.83z"/>
      <text fill="#010101" transform="translate(365.43 374)" font-size="7" font-family="Roboto Slab">
        33% <tspan x="14.29" y="0">m</tspan><tspan x="20.87" y="0">o</tspan><tspan x="24.8" y="0">r</tspan><tspan x="27.63" y="0">e li</tspan><tspan x="37.64" y="0">k</tspan><tspan x="41.82" y="0">ely </tspan><tspan x="53.5" y="0">t</tspan><tspan x="56" y="0">o </tspan><tspan x="0" y="8.4">p</tspan><tspan x="4.24" y="8.4">r</tspan><tspan x="7.07" y="8.4">e</tspan><tspan x="10.83" y="8.4">f</tspan><tspan x="13.24" y="8.4">er taki</tspan><tspan x="34.61" y="8.4">n</tspan><tspan x="39.08" y="8.4">g ca</tspan><tspan x="52.41" y="8.4">r</tspan><tspan x="55.24" y="8.4">e of</tspan><tspan x="0" y="16.8">a frie</tspan><tspan x="17.04" y="16.8">n</tspan><tspan x="21.51" y="16.8">d</tspan><tspan x="25.71" y="16.8">’</tspan><tspan x="26.87" y="16.8">s kids rat</tspan><tspan x="57.56" y="16.8">h</tspan><tspan x="62.04" y="16.8">er </tspan><tspan x="0" y="25.2">than a frie</tspan><tspan x="34.22" y="25.2">n</tspan><tspan x="38.69" y="25.2">d</tspan><tspan x="42.9" y="25.2">’</tspan><tspan x="44.05" y="25.2">s dogs</tspan>
      </text>
      <text fill="#231f20" transform="translate(323.5 327.19)" font-size="7.5" font-family="Roboto Slab">
        Both talk <tspan x="34.25" y="0">t</tspan><tspan x="36.92" y="0">o animals of all ki</tspan><tspan x="100.16" y="0">n</tspan><tspan x="104.95" y="0">ds.</tspan>
      </text>
      <path fill="none" stroke="#231f20" stroke-miterlimit="10" d="M248.96 361.26h-50.9V495.8m173.5-134.54h-49.93V495.8"/>
      <rect width="183.15" height="24" x="254.58" y="291.75" fill="#231f20" rx="10.09" ry="10.09"/>
      <text fill="#fff" transform="translate(264.49 309.34)" font-size="14" font-family="Roboto Slab">
        SPEAKING OF P<tspan x="105.63" y="0">E</tspan><tspan x="114.69" y="0">T</tspan><tspan x="123.36" y="0">S</tspan>
      </text>
    </g>
  </g>
</svg>
