<svg xmlns="http://www.w3.org/2000/svg" id="Layer_1" data-name="Layer 1" viewBox="0 0 612 792">
  <path fill="#00aeef" d="M150.33 277.23h311.34V589.9H150.33z"/>
  <text fill="#010101" transform="translate(188.2 404.02)" font-size="10" font-family="Roboto Slab">
    DOG PEOPLE
  </text>
  <text fill="#010101" transform="translate(311.7 404.02)" font-size="10" font-family="Roboto Slab">
    C<tspan x="6.45" y="0">A</tspan><tspan x="12.9" y="0">T PEOPLE</tspan>
  </text>
  <path fill="#231f20" d="M344.93 462.84a12.67 12.67 0 0 1-12.67 12.67v-12.6l-7.2 10.43a12.66 12.66 0 1 1 19.87-10.43z"/>
  <path fill="#fff200" d="M332.26 462.84v12.67a12.55 12.55 0 0 1-7.2-2.2z"/>
  <text fill="#010101" transform="translate(353.6 459.95)" font-size="7" font-family="Roboto Slab">
    7% <tspan x="10.59" y="0">m</tspan><tspan x="17.17" y="0">o</tspan><tspan x="21.09" y="0">r</tspan><tspan x="23.92" y="0">e li</tspan><tspan x="33.93" y="0">k</tspan><tspan x="38.12" y="0">ely </tspan><tspan x="49.8" y="0">t</tspan><tspan x="52.29" y="0">o </tspan><tspan x="0" y="8.4">be A</tspan><tspan x="14.68" y="8.4">n</tspan><tspan x="19.15" y="8.4">driod users</tspan>
  </text>
  <path fill="#231f20" d="M221.5 428.45a12.67 12.67 0 0 1-12.66 12.67v-12.67l-11.06 6.16a12.66 12.66 0 1 1 23.73-6.1z"/>
  <path fill="#fff200" d="M208.84 428.45v12.67a12.65 12.65 0 0 1-11.06-6.5z"/>
  <text fill="#010101" transform="translate(230.17 426.56)" font-size="7" font-family="Roboto Slab">
    12% <tspan x="13.48" y="0">m</tspan><tspan x="20.06" y="0">o</tspan><tspan x="23.99" y="0">r</tspan><tspan x="26.82" y="0">e li</tspan><tspan x="36.83" y="0">k</tspan><tspan x="41.01" y="0">ely </tspan><tspan x="52.69" y="0">t</tspan><tspan x="55.19" y="0">o </tspan><tspan x="0" y="8.4">be ea</tspan><tspan x="17.18" y="8.4">r</tspan><tspan x="20" y="8.4">ly adop</tspan><tspan x="44.14" y="8.4">t</tspan><tspan x="46.63" y="8.4">ors</tspan>
  </text>
  <path fill="#fff200" d="M209.33 496.33V509a12.66 12.66 0 0 1-12.63-11.84v-.83a12.7 12.7 0 0 1 .4-3.17v-.06a12.58 12.58 0 0 1 2.32-4.62z"/>
  <path fill="#231f20" d="M222 496.33A12.67 12.67 0 0 1 209.33 509v-12.67l-9.92-7.85a12.66 12.66 0 0 1 22.6 7.85z"/>
  <text fill="#010101" transform="translate(230.67 490.32)" font-size="7" font-family="Roboto Slab">
    36% <tspan x="14.42" y="0">m</tspan><tspan x="21" y="0">o</tspan><tspan x="24.93" y="0">r</tspan><tspan x="27.76" y="0">e li</tspan><tspan x="37.77" y="0">k</tspan><tspan x="41.95" y="0">ely </tspan><tspan x="53.63" y="0">t</tspan><tspan x="56.13" y="0">o </tspan><tspan x="0" y="8.4">use a popular so</tspan><tspan x="53.76" y="8.4">n</tspan><tspan x="58.24" y="8.4">g</tspan><tspan x="0" y="16.8">as a ri</tspan><tspan x="19.95" y="16.8">n</tspan><tspan x="24.42" y="16.8">g</tspan><tspan x="28.39" y="16.8">t</tspan><tspan x="30.88" y="16.8">o</tspan><tspan x="34.81" y="16.8">n</tspan><tspan x="39.28" y="16.8">e</tspan>
  </text>
  <path d="M340.78 424.54h-4.4V437h-8.22v-12.45h-4.4l.07-.1 5.36-7.12 3-4v-.06l.4.6 8 10.6z"/>
  <text fill="#010101" transform="translate(230.67 460.85)" font-size="7" font-family="Roboto Slab">
    23% <tspan x="14.38" y="0">m</tspan><tspan x="20.96" y="0">o</tspan><tspan x="24.88" y="0">r</tspan><tspan x="27.71" y="0">e li</tspan><tspan x="37.72" y="0">k</tspan><tspan x="41.91" y="0">ely </tspan><tspan x="53.59" y="0">t</tspan><tspan x="56.08" y="0">o </tspan><tspan x="0" y="8.4">be iP</tspan><tspan x="16.3" y="8.4">h</tspan><tspan x="20.79" y="8.4">o</tspan><tspan x="24.72" y="8.4">n</tspan><tspan x="29.19" y="8.4">e users</tspan>
  </text>
  <path fill="#231f20" d="M222 462.85a12.67 12.67 0 0 1-12.67 12.67v-12.67l-12.42 2.46a12.44 12.44 0 0 1-.2-2.4 12.7 12.7 0 0 1 .4-3.16v-.06l.18-.52a12.66 12.66 0 0 1 24.78 3.77z"/>
  <path fill="#fff200" d="M209.33 462.85v12.67a12.67 12.67 0 0 1-12.42-10.2z"/>
  <path fill="#231f20" d="M222.24 530.24a12.67 12.67 0 0 1-12.67 12.67v-12.6l-11.1-6.05a12.66 12.66 0 0 1 23.77 6.06z"/>
  <path fill="#fff200" d="M209.57 530.24v12.67a12.66 12.66 0 0 1-12.63-11.8v-.8a12.7 12.7 0 0 1 .4-3.17v-.1a12.5 12.5 0 0 1 1.13-2.8z"/>
  <text fill="#010101" transform="translate(230.91 521.24)" font-size="7" font-family="Roboto Slab">
    33% <tspan x="14.29" y="0">m</tspan><tspan x="20.87" y="0">o</tspan><tspan x="24.8" y="0">r</tspan><tspan x="27.63" y="0">e li</tspan><tspan x="37.64" y="0">k</tspan><tspan x="41.82" y="0">ely </tspan><tspan x="53.5" y="0">t</tspan><tspan x="56" y="0">o </tspan><tspan x="0" y="8.4">use a pictu</tspan><tspan x="36.05" y="8.4">r</tspan><tspan x="38.88" y="8.4">e of a child </tspan><tspan x="0" y="16.8">or pet as an </tspan><tspan x="40.13" y="16.8">av</tspan><tspan x="47.79" y="16.8">atar</tspan><tspan x="0" y="25.2">instead of t</tspan><tspan x="37.21" y="25.2">h</tspan><tspan x="41.7" y="25.2">emsel</tspan><tspan x="61.61" y="25.2">v</tspan><tspan x="65.47" y="25.2">es</tspan>
  </text>
  <text fill="#010101" transform="translate(353.6 419.55)" font-size="7" font-family="Roboto Slab">
    Mo<tspan x="10.44" y="0">r</tspan><tspan x="13.27" y="0">e li</tspan><tspan x="23.28" y="0">k</tspan><tspan x="27.46" y="0">ely </tspan><tspan x="39.14" y="0">t</tspan><tspan x="41.64" y="0">o wait for </tspan><tspan x="0" y="8.4">tech</tspan><tspan x="14.62" y="8.4">n</tspan><tspan x="19.09" y="8.4">ol</tspan><tspan x="25.08" y="8.4">ogy </tspan><tspan x="38.68" y="8.4">t</tspan><tspan x="41.18" y="8.4">o p</tspan><tspan x="51.08" y="8.4">r</tspan><tspan x="53.91" y="8.4">o</tspan><tspan x="57.79" y="8.4">v</tspan><tspan x="61.65" y="8.4">e </tspan><tspan x="0" y="16.8">itself befo</tspan><tspan x="32.86" y="16.8">r</tspan><tspan x="35.69" y="16.8">e buyi</tspan><tspan x="55.77" y="16.8">n</tspan><tspan x="60.24" y="16.8">g</tspan>
  </text>
  <path fill="#231f20" d="M344.93 497.24a12.67 12.67 0 0 1-12.67 12.67v-12.6l-11.06 6.17a12.66 12.66 0 1 1 23.73-6.15z"/>
  <path fill="#fff200" d="M332.26 497.24v12.67a12.65 12.65 0 0 1-11.06-6.5z"/>
  <text fill="#010101" transform="translate(353.6 490.34)" font-size="7" font-family="Roboto Slab">
    11% <tspan x="12.5" y="0">m</tspan><tspan x="19.08" y="0">o</tspan><tspan x="23.01" y="0">r</tspan><tspan x="25.84" y="0">e li</tspan><tspan x="35.84" y="0">k</tspan><tspan x="40.03" y="0">ely </tspan><tspan x="51.71" y="0">t</tspan><tspan x="54.21" y="0">o h</tspan><tspan x="64.39" y="0">a</tspan><tspan x="68.2" y="0">v</tspan><tspan x="72.06" y="0">e </tspan><tspan x="0" y="8.4">contacts both in t</tspan><tspan x="58.18" y="8.4">h</tspan><tspan x="62.67" y="8.4">eir </tspan><tspan x="0" y="16.8">cell </tspan><tspan x="13.69" y="16.8">ph</tspan><tspan x="22.37" y="16.8">o</tspan><tspan x="26.3" y="16.8">n</tspan><tspan x="30.77" y="16.8">e a</tspan><tspan x="40.13" y="16.8">n</tspan><tspan x="44.6" y="16.8">d also in a </tspan><tspan x="0" y="25.2">p</tspan><tspan x="4.2" y="25.2">hysical add</tspan><tspan x="42.39" y="25.2">r</tspan><tspan x="45.22" y="25.2">ess bo</tspan><tspan x="65.84" y="25.2">o</tspan><tspan x="69.7" y="25.2">k</tspan>
  </text>
  <text fill="#231f20" transform="translate(186.19 373.03)" font-size="7.5" font-family="Roboto Slab">
    Both a<tspan x="22.72" y="0">r</tspan><tspan x="25.75" y="0">e enthusiastic users of social </tspan><tspan x="130.84" y="0">m</tspan><tspan x="137.89" y="0">edia, but cat peo</tspan><tspan x="195.44" y="0">p</tspan><tspan x="199.94" y="0">le tweet </tspan><tspan x="229.82" y="0">m</tspan><tspan x="236.87" y="0">o</tspan><tspan x="241.08" y="0">r</tspan><tspan x="244.11" y="0">e.</tspan>
  </text>
  <path fill="none" stroke="#231f20" stroke-miterlimit="10" d="M238.16 406.17H186.2v183.75m176.9-183.75h-51.96v183.75"/>
  <rect width="139.52" height="24" x="236.24" y="330.58" fill="#231f20" rx="10.09" ry="10.09"/>
  <text fill="#fff" transform="translate(257.56 347.58)" font-size="14" font-family="Roboto Slab">
    TECHNO<tspan x="58.03" y="0">L</tspan><tspan x="65.78" y="0">OGY</tspan>
  </text>
  <path fill="#cdcccc" d="M163.3 311.1h2.9v2.9h-2.9zm3.62-2h2.9v4.9h-2.9zm7.23-3.47h2.9V314h-2.9zm3.62-2.05h2.9V314h-2.9zm-7.23 4h2.9V314h-2.9z"/>
  <text fill="#cdcccc" transform="translate(185.19 312.09)" font-size="12.25" font-family="Helvetica" font-weight="700">
    Carrier
  </text>
  <text fill="#cdcccc" transform="translate(278.99 312.09)" font-size="12.25" font-family="Helvetica" font-weight="700">
    12:00 PM
  </text>
  <path fill="#cdcccc" d="M448.7 305.8h-2.52v-2.43H427.8v8.95h18.38v-2.43h2.5v-4.1z"/>
  <path fill="#fff" d="M454.46 589V296.06H157.54V589h-19.38V252.7c0-27.4 19.77-49.7 44.08-49.7h247.52c24.3 0 44.08 22.3 44.08 49.7V589h-19.38z"/>
  <path fill="#cdcccc" d="M429.76 203.93c23.8 0 43.16 21.9 43.16 48.8v335.34h-17.54V295.14H156.62v292.93h-17.54V252.7c0-26.9 19.36-48.78 43.16-48.78h247.52m0-1.84H182.24c-24.86 0-45 22.67-45 50.63v337.2h21.22V297h295.08v292.9h21.22V252.7c0-28-20.14-50.62-45-50.62z"/>
  <path fill="#cdcccc" d="M337.12 265.15c0 2.75-3.12 5-7 5h-48.27c-3.85 0-7-2.23-7-5 0-2.75 3.12-5 7-5h48.3c3.85 0 7 2.23 7 5z"/>
  <circle cx="306" cy="238.28" r="6.03" fill="#cdcccc"/>
</svg>
